<svg width="575" height="323" viewBox="0 0 575 323" fill="none" xmlns="http://www.w3.org/2000/svg">
<rect width="575" height="322" rx="15.7745" fill="url(#paint0_linear_8843_510)"/>
<path d="M306.875 286.607C307.137 284.603 309.737 283.948 310.992 285.531C314.666 290.168 317.522 293.1 317.846 293.43C317.869 293.453 317.888 293.473 317.911 293.496C319.936 295.584 322.696 297.012 325.836 297.342C332.936 298.095 339.303 292.989 340.061 285.93C340.818 278.871 335.683 272.54 328.584 271.787C326.889 271.608 325.233 271.774 323.693 272.208C320.899 273.2 313.826 273.193 312.991 270.348C311.577 265.527 310.588 259.196 311.394 251.708C311.522 250.584 311.561 249.385 311.561 248.146C311.95 240.68 312.021 233.091 311.661 225.469C311.461 221.255 312.788 217.06 315.61 213.924C340.363 186.424 358.65 176.693 366.497 173.49C369.207 172.383 372.254 172.461 374.744 174C392.596 185.032 408.571 225.139 413.116 237.369C413.99 239.723 414.223 242.226 413.706 244.683C411.879 253.379 406.061 275.236 391.658 289.094C389.135 291.521 383.986 288.93 381.334 286.645C377.162 283.058 371.179 283.875 367.174 287.066C364.825 289.121 363.207 292.006 362.848 295.351C362.09 302.41 367.238 308.741 374.325 309.494C376.747 309.749 379.066 309.317 381.117 308.363C381.123 308.361 381.129 308.364 381.129 308.37C381.129 308.376 381.135 308.38 381.14 308.377C381.173 308.359 381.267 308.306 381.323 308.264C381.33 308.259 381.338 308.254 381.347 308.249C381.882 307.983 382.404 307.691 382.9 307.362C395.748 299.878 421.239 279.539 418.874 248.522C418.788 247.395 418.784 246.236 418.889 245.11C423.314 197.371 396.661 163.51 384.822 151.009C381.542 147.545 379.673 142.857 380.179 138.114C380.41 136.021 378.882 134.144 376.777 133.927C374.671 133.697 372.784 135.216 372.566 137.31C372.063 141.949 368.92 145.826 364.697 147.81C327.909 165.086 309.853 206.292 309.853 206.316C301.637 140.833 308.146 65.2781 366.815 71.5073C368.984 71.5456 371.218 71.6605 373.554 71.9413C434.187 79.3449 459.336 154.312 434.161 223.778C409.012 293.244 390.564 343.818 384.248 365.391C378.625 384.576 368.586 420.828 334.271 416.603C328.494 416.654 321.934 415.493 314.462 412.672C269.655 395.835 288.991 348.363 289.933 346.122C289.963 346.05 289.979 346.013 290.008 345.941C290.72 344.205 300.628 319.72 306.875 286.581" fill="white" fill-opacity="0.15"/>
<path d="M256.672 196.462C256.631 194.424 254.108 193.497 252.68 194.953C248.531 199.181 245.375 201.791 245.014 202.087C244.988 202.108 244.966 202.126 244.941 202.147C242.698 204.008 239.796 205.134 236.64 205.134C229.495 205.134 223.7 199.378 223.7 192.267C223.7 185.156 229.495 179.388 236.64 179.388C238.349 179.388 239.968 179.734 241.458 180.322C244.157 181.618 251.174 182.38 252.32 179.615C254.248 174.96 255.914 168.753 255.914 161.201C255.914 160.063 255.991 158.874 256.12 157.633C256.539 150.16 257.277 142.593 258.459 135.03C259.111 130.856 258.243 126.535 255.769 123.11C234.076 93.0788 216.917 81.4528 209.454 77.435C206.878 76.0485 203.844 75.803 201.206 77.0666C182.238 86.152 162.035 124.455 156.212 136.146C155.094 138.39 154.597 140.851 154.847 143.346C155.732 152.192 159.179 174.586 172.017 189.926C174.275 192.625 179.668 190.59 182.567 188.597C187.103 185.476 192.963 186.921 196.625 190.528C198.745 192.817 200.043 195.861 200.043 199.225C200.043 206.336 194.248 212.104 187.103 212.104C184.666 212.104 182.409 211.416 180.471 210.256C180.466 210.253 180.46 210.257 180.46 210.262C180.46 210.268 180.454 210.271 180.449 210.268C180.415 210.246 180.308 210.177 180.254 210.134C179.74 209.815 179.252 209.469 178.79 209.086C166.8 200.255 143.606 177.3 149.306 146.652C149.513 145.538 149.642 144.383 149.659 143.249C150.366 95.2271 180.506 64.3215 193.63 53.1177C197.269 50.011 199.632 45.5338 199.632 40.7489C199.632 38.6386 201.354 36.9248 203.461 36.9248C205.569 36.9248 207.29 38.6386 207.29 40.7489C207.29 45.4268 210.008 49.63 214.006 52.0587C225.579 59.0888 234.8 68.5429 241.952 78.0275C250.824 89.7913 268.226 88.0866 269.811 73.4382C275.338 22.3627 266.282 -24.1611 220.063 -24.1711C217.904 -24.363 215.669 -24.4781 213.304 -24.4525C152.165 -23.5061 119.102 48.5122 136.719 120.39C154.311 192.267 167.238 244.602 171.221 266.767C174.755 286.463 180.858 323.642 215.476 323.092C221.233 323.757 227.876 323.284 235.612 321.276C282.046 309.253 267.829 259.823 267.156 257.574C267.135 257.502 267.124 257.467 267.103 257.395C266.588 255.619 259.336 230.167 256.672 196.462Z" fill="white" fill-opacity="0.15"/>
<rect opacity="0.6" width="575" height="322" rx="15.7745" fill="#171B41" fill-opacity="0.45"/>
<defs>
<linearGradient id="paint0_linear_8843_510" x1="309.689" y1="14.3486" x2="302.617" y2="322.435" gradientUnits="userSpaceOnUse">
<stop stop-color="#72B85A"/>
<stop offset="1" stop-color="#487E35"/>
</linearGradient>
</defs>
</svg>
