<svg width="576" height="323" viewBox="0 0 576 323" fill="none" xmlns="http://www.w3.org/2000/svg">
<g clip-path="url(#clip0_8843_519)">
<rect width="575" height="323" rx="15.7745" fill="url(#paint0_linear_8843_519)"/>
<path d="M307.875 286.607C308.137 284.603 310.737 283.948 311.992 285.531C315.666 290.168 318.522 293.1 318.846 293.43C318.869 293.453 318.888 293.473 318.911 293.496C320.936 295.584 323.696 297.012 326.836 297.342C333.936 298.095 340.303 292.989 341.061 285.93C341.818 278.871 336.683 272.54 329.584 271.787C327.889 271.608 326.233 271.774 324.693 272.208C321.899 273.2 314.826 273.193 313.991 270.348C312.577 265.527 311.588 259.196 312.394 251.708C312.522 250.584 312.561 249.385 312.561 248.146C312.95 240.68 313.021 233.091 312.661 225.469C312.461 221.255 313.788 217.06 316.61 213.924C341.363 186.424 359.65 176.693 367.497 173.49C370.207 172.383 373.254 172.461 375.744 174C393.596 185.032 409.571 225.139 414.116 237.369C414.99 239.723 415.223 242.226 414.706 244.683C412.879 253.379 407.061 275.236 392.658 289.094C390.135 291.521 384.986 288.93 382.334 286.645C378.162 283.058 372.179 283.875 368.174 287.066C365.825 289.121 364.207 292.006 363.848 295.351C363.09 302.41 368.238 308.741 375.325 309.494C377.747 309.749 380.066 309.317 382.117 308.363C382.123 308.361 382.129 308.364 382.129 308.37C382.129 308.376 382.135 308.38 382.14 308.377C382.173 308.359 382.267 308.306 382.323 308.264C382.33 308.259 382.338 308.254 382.347 308.249C382.882 307.983 383.404 307.691 383.9 307.362C396.748 299.878 422.239 279.539 419.874 248.522C419.788 247.395 419.784 246.236 419.889 245.11C424.314 197.371 397.661 163.51 385.822 151.009C382.542 147.545 380.673 142.857 381.179 138.114C381.41 136.021 379.882 134.144 377.777 133.927C375.671 133.697 373.784 135.216 373.566 137.31C373.063 141.949 369.92 145.826 365.697 147.81C328.909 165.086 310.853 206.292 310.853 206.316C302.637 140.833 309.146 65.2781 367.815 71.5073C369.984 71.5456 372.218 71.6605 374.554 71.9413C435.187 79.3449 460.336 154.312 435.161 223.778C410.012 293.244 391.564 343.818 385.248 365.391C379.625 384.576 369.586 420.828 335.271 416.603C329.494 416.654 322.934 415.493 315.462 412.672C270.655 395.835 289.991 348.363 290.933 346.122C290.963 346.05 290.979 346.013 291.008 345.941C291.72 344.205 301.628 319.72 307.875 286.581" fill="white" fill-opacity="0.15"/>
<path d="M257.672 210.462C257.631 208.424 255.108 207.497 253.68 208.953C249.531 213.181 246.375 215.791 246.014 216.087C245.988 216.108 245.966 216.126 245.941 216.147C243.698 218.008 240.796 219.134 237.64 219.134C230.495 219.134 224.7 213.378 224.7 206.267C224.7 199.156 230.495 193.388 237.64 193.388C239.349 193.388 240.968 193.734 242.458 194.322C245.157 195.618 252.174 196.38 253.32 193.615C255.248 188.96 256.914 182.753 256.914 175.201C256.914 174.063 256.991 172.874 257.12 171.633C257.539 164.16 258.277 156.593 259.459 149.03C260.111 144.856 259.243 140.535 256.769 137.11C235.076 107.079 217.917 95.4528 210.454 91.435C207.878 90.0485 204.844 89.803 202.206 91.0666C183.238 100.152 163.035 138.455 157.212 150.146C156.094 152.39 155.597 154.851 155.847 157.346C156.732 166.192 160.179 188.586 173.017 203.926C175.275 206.625 180.668 204.59 183.567 202.597C188.103 199.476 193.963 200.921 197.625 204.528C199.745 206.817 201.043 209.861 201.043 213.225C201.043 220.336 195.248 226.104 188.103 226.104C185.666 226.104 183.409 225.416 181.471 224.256C181.466 224.253 181.46 224.257 181.46 224.262C181.46 224.268 181.454 224.271 181.449 224.268C181.415 224.246 181.308 224.177 181.254 224.134C180.74 223.815 180.252 223.469 179.79 223.086C167.8 214.255 144.606 191.3 150.306 160.652C150.513 159.538 150.642 158.383 150.659 157.249C151.366 109.227 181.506 78.3215 194.63 67.1177C198.269 64.011 200.632 59.5338 200.632 54.7489C200.632 52.6386 202.354 50.9248 204.461 50.9248C206.569 50.9248 208.29 52.6386 208.29 54.7489C208.29 59.4268 211.008 63.63 215.006 66.0587C226.579 73.0888 235.8 82.5429 242.952 92.0275C251.824 103.791 269.226 102.087 270.811 87.4382C276.338 36.3627 267.282 -10.1611 221.063 -10.1711C218.904 -10.363 216.669 -10.4781 214.304 -10.4525C153.165 -9.50609 120.102 62.5122 137.719 134.39C155.311 206.267 168.238 258.602 172.221 280.767C175.755 300.463 181.858 337.642 216.476 337.092C222.233 337.757 228.876 337.284 236.612 335.276C283.046 323.253 268.829 273.823 268.156 271.574C268.135 271.502 268.124 271.467 268.103 271.395C267.588 269.619 260.336 244.167 257.672 210.462Z" fill="white" fill-opacity="0.15"/>
<rect opacity="0.6" x="1" width="575" height="322" rx="15.7745" fill="#171B41" fill-opacity="0.45"/>
</g>
<defs>
<linearGradient id="paint0_linear_8843_519" x1="287.5" y1="384.37" x2="287.5" y2="-3.08155e-06" gradientUnits="userSpaceOnUse">
<stop stop-color="#FFAC32"/>
<stop offset="1" stop-color="#FFC36A"/>
</linearGradient>
<clipPath id="clip0_8843_519">
<rect width="576" height="323" fill="white"/>
</clipPath>
</defs>
</svg>
