<svg width="32" height="32" viewBox="0 0 32 32" fill="none" xmlns="http://www.w3.org/2000/svg">
<g clip-path="url(#clip0_7001_1435)">
<path d="M7.79985 0.167969C7.18443 0.167969 6.68555 0.66685 6.68555 1.28227V3.51082H8.91409V1.28227C8.91409 0.66685 8.41521 0.167969 7.79985 0.167969Z" fill="#FFAC32"/>
<path d="M23.4014 0.168213C22.786 0.168213 22.2871 0.667094 22.2871 1.28252V3.51106H24.5157V1.28252C24.5157 0.667094 24.0168 0.168213 23.4014 0.168213Z" fill="#FFAC32"/>
<path d="M27.859 3.51074H24.5162V7.9679C24.5162 8.58332 24.0173 9.0822 23.4019 9.0822C22.7865 9.0822 22.2876 8.58332 22.2876 7.9679V3.51074H8.9162V7.9679C8.9162 8.58332 8.41731 9.0822 7.80189 9.0822C7.18647 9.0822 6.68759 8.58332 6.68759 7.9679V3.51074H3.3448C1.4986 3.51074 0.00195312 5.00739 0.00195312 6.85359V28.025C0.00195312 29.8712 1.4986 31.3678 3.3448 31.3678H27.859C29.7053 31.3678 31.2019 29.8712 31.2019 28.025V6.85359C31.2019 5.00739 29.7053 3.51074 27.859 3.51074ZM28.9733 28.025C28.9733 28.6404 28.4744 29.1393 27.859 29.1393H3.3448C2.72938 29.1393 2.2305 28.6404 2.2305 28.025V13.5393H28.9733V28.025Z" fill="#FFAC32"/>
<path d="M8.91511 15.7681H6.68657C6.07115 15.7681 5.57227 16.2669 5.57227 16.8824C5.57227 17.4978 6.07115 17.9967 6.68657 17.9967H8.91511C9.53054 17.9967 10.0294 17.4978 10.0294 16.8824C10.0294 16.2669 9.53054 15.7681 8.91511 15.7681Z" fill="#FFAC32"/>
<path d="M16.7139 15.7681H14.4854C13.87 15.7681 13.3711 16.2669 13.3711 16.8824C13.3711 17.4978 13.87 17.9967 14.4854 17.9967H16.7139C17.3294 17.9967 17.8282 17.4978 17.8282 16.8824C17.8282 16.2669 17.3294 15.7681 16.7139 15.7681Z" fill="#FFAC32"/>
<path d="M24.5147 15.7681H22.2862C21.6708 15.7681 21.1719 16.2669 21.1719 16.8824C21.1719 17.4978 21.6708 17.9967 22.2862 17.9967H24.5147C25.1301 17.9967 25.629 17.4978 25.629 16.8824C25.629 16.2669 25.1301 15.7681 24.5147 15.7681Z" fill="#FFAC32"/>
<path d="M8.91511 20.2251H6.68657C6.07115 20.2251 5.57227 20.724 5.57227 21.3394C5.57227 21.9548 6.07115 22.4537 6.68657 22.4537H8.91511C9.53054 22.4537 10.0294 21.9548 10.0294 21.3394C10.0294 20.724 9.53054 20.2251 8.91511 20.2251Z" fill="#FFAC32"/>
<path d="M16.7139 20.2252H14.4854C13.87 20.2252 13.3711 20.7241 13.3711 21.3395C13.3711 21.955 13.87 22.4538 14.4854 22.4538H16.7139C17.3294 22.4538 17.8282 21.955 17.8282 21.3395C17.8282 20.7241 17.3294 20.2252 16.7139 20.2252Z" fill="#FFAC32"/>
<path d="M24.5147 20.2253H22.2862C21.6708 20.2253 21.1719 20.7242 21.1719 21.3396C21.1719 21.9551 21.6708 22.454 22.2862 22.454H24.5147C25.1301 22.454 25.629 21.9551 25.629 21.3396C25.629 20.7242 25.1301 20.2253 24.5147 20.2253Z" fill="#FFAC32"/>
<path d="M8.91511 24.6821H6.68657C6.07115 24.6821 5.57227 25.181 5.57227 25.7964C5.57227 26.4119 6.07115 26.9107 6.68657 26.9107H8.91511C9.53054 26.9107 10.0294 26.4118 10.0294 25.7964C10.0294 25.1809 9.53054 24.6821 8.91511 24.6821Z" fill="#FFAC32"/>
<path d="M16.7139 24.6823H14.4854C13.87 24.6823 13.3711 25.1811 13.3711 25.7966C13.3711 26.412 13.87 26.9109 14.4854 26.9109H16.7139C17.3294 26.9109 17.8282 26.412 17.8282 25.7966C17.8282 25.1811 17.3294 24.6823 16.7139 24.6823Z" fill="#FFAC32"/>
<path d="M24.5147 24.6824H22.2862C21.6708 24.6824 21.1719 25.1813 21.1719 25.7967C21.1719 26.4121 21.6708 26.911 22.2862 26.911H24.5147C25.1301 26.911 25.629 26.4121 25.629 25.7967C25.629 25.1813 25.1301 24.6824 24.5147 24.6824Z" fill="#FFAC32"/>
</g>
<defs>
<clipPath id="clip0_7001_1435">
<rect width="31.1999" height="31.2" fill="white" transform="translate(0 0.167969)"/>
</clipPath>
</defs>
</svg>
