<svg width="25" height="24" viewBox="0 0 25 24" fill="none" xmlns="http://www.w3.org/2000/svg">
<path fill-rule="evenodd" clip-rule="evenodd" d="M9.29492 9.75C11.5731 9.75 13.4199 7.90317 13.4199 5.625C13.4199 3.34683 11.5731 1.5 9.29492 1.5C7.01675 1.5 5.16992 3.34683 5.16992 5.625C5.16992 7.90317 7.01675 9.75 9.29492 9.75ZM9.29492 7.5C10.3305 7.5 11.1699 6.66053 11.1699 5.625C11.1699 4.58947 10.3305 3.75 9.29492 3.75C8.25939 3.75 7.41992 4.58947 7.41992 5.625C7.41992 6.66053 8.25939 7.5 9.29492 7.5Z" fill="#9F8332"/>
<path fill-rule="evenodd" clip-rule="evenodd" d="M22.0449 6.375C22.0449 8.23896 20.5339 9.75 18.6699 9.75C16.806 9.75 15.2949 8.23896 15.2949 6.375C15.2949 4.51104 16.806 3 18.6699 3C20.5339 3 22.0449 4.51104 22.0449 6.375ZM19.7949 6.375C19.7949 6.99632 19.2912 7.5 18.6699 7.5C18.0486 7.5 17.5449 6.99632 17.5449 6.375C17.5449 5.75368 18.0486 5.25 18.6699 5.25C19.2912 5.25 19.7949 5.75368 19.7949 6.375Z" fill="#9F8332"/>
<path fill-rule="evenodd" clip-rule="evenodd" d="M20.1699 12C22.6552 12 24.6699 14.0147 24.6699 16.5V22.5H0.669922V16.5C0.669922 14.0147 2.68464 12 5.16992 12H20.1699ZM22.4199 16.5V20.25H15.6699V14.25H20.1699C21.4126 14.25 22.4199 15.2574 22.4199 16.5ZM13.4199 14.25V20.25H2.91992V16.5C2.91992 15.2574 3.92728 14.25 5.16992 14.25H13.4199Z" fill="#9F8332"/>
</svg>
