<svg width="31" height="31" viewBox="0 0 31 31" fill="none" xmlns="http://www.w3.org/2000/svg">
<g clip-path="url(#clip0_7001_1773)">
<path d="M30.5918 15.5C30.5918 7.21573 23.8761 0.5 15.5918 0.5C7.30753 0.5 0.591797 7.21573 0.591797 15.5C0.591797 23.7843 7.30753 30.5 15.5918 30.5C23.8761 30.5 30.5918 23.7843 30.5918 15.5Z" fill="white" fill-opacity="0.12"/>
<path d="M19.7148 8H17.4648C16.4703 8 15.5165 8.3951 14.8132 9.09838C14.1099 9.80165 13.7148 10.7554 13.7148 11.75V14H11.4648V17H13.7148V23H16.7148V17H18.9648L19.7148 14H16.7148V11.75C16.7148 11.5511 16.7939 11.3603 16.9345 11.2197C17.0752 11.0791 17.2659 11 17.4648 11H19.7148V8Z" fill="white"/>
</g>
<defs>
<clipPath id="clip0_7001_1773">
<rect width="30" height="30" fill="white" transform="translate(0.591797 0.5)"/>
</clipPath>
</defs>
</svg>
