<svg width="24" height="32" viewBox="0 0 24 32" fill="none" xmlns="http://www.w3.org/2000/svg">
<g clip-path="url(#clip0_7001_1426)">
<path d="M17.3767 16.1746H5.85734V19.9883H17.3767V16.1746ZM22.7164 7.17649L16.8427 1.33668C16.5728 1.06853 16.2068 0.919556 15.8228 0.919556H15.4568V8.54706H23.1364V8.18356C23.1364 7.80814 22.9864 7.44465 22.7164 7.17649ZM13.5369 9.02378V0.919556H1.53758C0.739621 0.919556 0.0976562 1.55717 0.0976562 2.34971V29.9994C0.0976562 30.792 0.739621 31.4296 1.53758 31.4296H21.6965C22.4944 31.4296 23.1364 30.792 23.1364 29.9994V10.4539H14.9768C14.1849 10.4539 13.5369 9.81036 13.5369 9.02378ZM3.93745 5.21003C3.93745 4.94664 4.15223 4.73331 4.41742 4.73331H9.21716C9.48234 4.73331 9.69713 4.94664 9.69713 5.21003V6.16346C9.69713 6.42685 9.48234 6.64018 9.21716 6.64018H4.41742C4.15223 6.64018 3.93745 6.42685 3.93745 6.16346V5.21003ZM3.93745 9.02378C3.93745 8.76039 4.15223 8.54706 4.41742 8.54706H9.21716C9.48234 8.54706 9.69713 8.76039 9.69713 9.02378V9.97721C9.69713 10.2406 9.48234 10.4539 9.21716 10.4539H4.41742C4.15223 10.4539 3.93745 10.2406 3.93745 9.97721V9.02378ZM19.2966 27.1391C19.2966 27.4025 19.0818 27.6158 18.8166 27.6158H14.0169C13.7517 27.6158 13.5369 27.4025 13.5369 27.1391V26.1857C13.5369 25.9223 13.7517 25.7089 14.0169 25.7089H18.8166C19.0818 25.7089 19.2966 25.9223 19.2966 26.1857V27.1391ZM19.2966 15.2211V20.9417C19.2966 21.4685 18.867 21.8952 18.3367 21.8952H4.89739C4.36702 21.8952 3.93745 21.4685 3.93745 20.9417V15.2211C3.93745 14.6943 4.36702 14.2677 4.89739 14.2677H18.3367C18.867 14.2677 19.2966 14.6943 19.2966 15.2211Z" fill="#74B959"/>
</g>
<defs>
<clipPath id="clip0_7001_1426">
<rect width="23.0387" height="30.51" fill="white" transform="translate(0.0976562 0.919434)"/>
</clipPath>
</defs>
</svg>
