<svg width="174" height="60" viewBox="0 0 174 60" fill="none" xmlns="http://www.w3.org/2000/svg">
<g clip-path="url(#clip0_7001_1760)">
<path d="M30.5996 40.5C30.5996 32.2157 23.8839 25.5 15.5996 25.5C7.31534 25.5 0.599609 32.2157 0.599609 40.5C0.599609 48.7843 7.31534 55.5 15.5996 55.5C23.8839 55.5 30.5996 48.7843 30.5996 40.5Z" fill="white" fill-opacity="0.12"/>
<mask id="mask0_7001_1760" style="mask-type:luminance" maskUnits="userSpaceOnUse" x="9" y="33" width="14" height="15">
<path d="M22.1621 33.9375H9.03711V47.0625H22.1621V33.9375Z" fill="white"/>
</mask>
<g mask="url(#mask0_7001_1760)">
<path d="M16.8483 39.4922L21.7343 33.9375H20.5765L16.3339 38.7605L12.9454 33.9375H9.03711L14.1613 41.2308L9.03711 47.0557H10.195L14.6753 41.9624L18.2539 47.0557H22.1621L16.8483 39.4922ZM15.2623 41.2951L14.7432 40.5689L10.6123 34.7899H12.3907L15.7244 39.4537L16.2436 40.18L20.5771 46.2421H18.7986L15.2623 41.2951Z" fill="white"/>
</g>
</g>
<g clip-path="url(#clip1_7001_1760)">
<path d="M78.0957 40.5C78.0957 32.2157 71.38 25.5 63.0957 25.5C54.8114 25.5 48.0957 32.2157 48.0957 40.5C48.0957 48.7843 54.8114 55.5 63.0957 55.5C71.38 55.5 78.0957 48.7843 78.0957 40.5Z" fill="white" fill-opacity="0.12"/>
<path d="M66.0977 37.875C67.2912 37.875 68.4358 38.3491 69.2797 39.1931C70.1236 40.037 70.5977 41.1815 70.5977 42.375V47.6251H67.5977V42.375C67.5977 41.9772 67.4396 41.5957 67.1584 41.3144C66.8771 41.033 66.4955 40.875 66.0977 40.875C65.6999 40.875 65.3183 41.033 65.037 41.3144C64.7557 41.5957 64.5977 41.9772 64.5977 42.375V47.6251H61.5977V42.375C61.5977 41.1815 62.0717 40.037 62.9157 39.1931C63.7596 38.3491 64.9042 37.875 66.0977 37.875Z" fill="white"/>
<path d="M58.5957 38.625H55.5957V47.6251H58.5957V38.625Z" fill="white"/>
<path d="M57.0957 36.3755C57.9242 36.3755 58.5957 35.7039 58.5957 34.8755C58.5957 34.047 57.9242 33.3755 57.0957 33.3755C56.2673 33.3755 55.5957 34.047 55.5957 34.8755C55.5957 35.7039 56.2673 36.3755 57.0957 36.3755Z" fill="white"/>
</g>
<g clip-path="url(#clip2_7001_1760)">
<path d="M125.592 40.5C125.592 32.2157 118.876 25.5 110.592 25.5C102.308 25.5 95.5918 32.2157 95.5918 40.5C95.5918 48.7843 102.308 55.5 110.592 55.5C118.876 55.5 125.592 48.7843 125.592 40.5Z" fill="white" fill-opacity="0.12"/>
<path d="M114.715 33H112.465C111.47 33 110.516 33.3951 109.813 34.0984C109.11 34.8017 108.715 35.7554 108.715 36.75V39H106.465V42H108.715V48H111.715V42H113.965L114.715 39H111.715V36.75C111.715 36.5511 111.794 36.3603 111.935 36.2197C112.075 36.0791 112.266 36 112.465 36H114.715V33Z" fill="white"/>
</g>
<g clip-path="url(#clip3_7001_1760)">
<path d="M173.088 40.5C173.088 32.2157 166.372 25.5 158.088 25.5C149.804 25.5 143.088 32.2157 143.088 40.5C143.088 48.7843 149.804 55.5 158.088 55.5C166.372 55.5 173.088 48.7843 173.088 40.5Z" fill="white" fill-opacity="0.12"/>
<path d="M155.215 40.5C155.215 38.9123 156.502 37.6248 158.09 37.6248C159.678 37.6248 160.965 38.9123 160.965 40.5C160.965 42.0878 159.678 43.3752 158.09 43.3752C156.502 43.3752 155.215 42.0878 155.215 40.5ZM153.661 40.5C153.661 42.946 155.644 44.9288 158.09 44.9288C160.536 44.9288 162.519 42.946 162.519 40.5C162.519 38.0539 160.536 36.0712 158.09 36.0712C155.644 36.0712 153.661 38.0539 153.661 40.5ZM161.659 35.8956C161.659 36.4669 162.122 36.9309 162.694 36.9309C163.266 36.9309 163.73 36.4669 163.73 35.8956C163.73 35.3243 163.266 34.861 162.694 34.861C162.122 34.861 161.659 35.3243 161.659 35.8956ZM154.605 47.5205C153.764 47.4822 153.307 47.3422 153.003 47.2238C152.601 47.067 152.314 46.8802 152.011 46.5786C151.71 46.2769 151.522 45.9899 151.366 45.5873C151.248 45.2835 151.108 44.8265 151.069 43.9855C151.027 43.0763 151.019 42.8033 151.019 40.5C151.019 38.1967 151.028 37.9244 151.069 37.0145C151.108 36.1736 151.248 35.7173 151.366 35.4128C151.523 35.0101 151.71 34.7231 152.011 34.4207C152.313 34.119 152.6 33.9316 153.003 33.7756C153.307 33.6571 153.764 33.5171 154.605 33.4788C155.514 33.437 155.787 33.4286 158.09 33.4286C160.393 33.4286 160.666 33.4377 161.575 33.4788C162.416 33.5171 162.873 33.6578 163.177 33.7756C163.58 33.9316 163.867 34.119 164.169 34.4207C164.471 34.7224 164.658 35.0101 164.814 35.4128C164.933 35.7166 165.073 36.1736 165.111 37.0145C165.153 37.9244 165.161 38.1967 165.161 40.5C165.161 42.8026 165.153 43.0757 165.111 43.9855C165.073 44.8265 164.932 45.2835 164.814 45.5873C164.658 45.9899 164.471 46.2769 164.169 46.5786C163.867 46.8802 163.58 47.067 163.177 47.2238C162.873 47.3422 162.416 47.4822 161.575 47.5205C160.666 47.5623 160.393 47.5707 158.09 47.5707C155.787 47.5707 155.514 47.5623 154.605 47.5205ZM154.534 31.9273C153.616 31.969 152.989 32.1147 152.44 32.3278C151.873 32.548 151.393 32.8434 150.913 33.3227C150.433 33.802 150.138 34.2827 149.918 34.8505C149.704 35.3989 149.559 36.0259 149.517 36.9441C149.475 37.8637 149.465 38.1578 149.465 40.5C149.465 42.8422 149.475 43.1362 149.517 44.0559C149.559 44.9741 149.704 45.6011 149.918 46.1495C150.138 46.7165 150.433 47.198 150.913 47.6773C151.392 48.1566 151.873 48.4513 152.44 48.6721C152.989 48.8854 153.616 49.031 154.534 49.0727C155.454 49.1146 155.748 49.125 158.09 49.125C160.433 49.125 160.726 49.1152 161.646 49.0727C162.564 49.031 163.191 48.8854 163.739 48.6721C164.306 48.4513 164.787 48.1566 165.267 47.6773C165.746 47.198 166.041 46.7165 166.262 46.1495C166.475 45.6011 166.621 44.9741 166.663 44.0559C166.704 43.1356 166.714 42.8422 166.714 40.5C166.714 38.1578 166.704 37.8637 166.663 36.9441C166.621 36.0259 166.475 35.3989 166.262 34.8505C166.041 34.2835 165.746 33.8027 165.267 33.3227C164.788 32.8434 164.306 32.548 163.74 32.3278C163.191 32.1147 162.564 31.9684 161.646 31.9273C160.727 31.8854 160.433 31.875 158.091 31.875C155.748 31.875 155.454 31.8847 154.534 31.9273Z" fill="white"/>
</g>
<defs>
<clipPath id="clip0_7001_1760">
<rect width="30" height="30" fill="white" transform="translate(0.599609 25.5)"/>
</clipPath>
<clipPath id="clip1_7001_1760">
<rect width="30" height="30" fill="white" transform="translate(48.0957 25.5)"/>
</clipPath>
<clipPath id="clip2_7001_1760">
<rect width="30" height="30" fill="white" transform="translate(95.5918 25.5)"/>
</clipPath>
<clipPath id="clip3_7001_1760">
<rect width="30" height="30" fill="white" transform="translate(143.088 25.5)"/>
</clipPath>
</defs>
</svg>
