<svg width="1440" height="839" viewBox="0 0 1440 839" fill="none" xmlns="http://www.w3.org/2000/svg">
<path d="M0 0H1440V742.5C1440 742.5 1213.5 838.5 720 838.5C226.5 838.5 0 742.5 0 742.5V0Z" fill="#74B959"/>
<mask id="mask0_8843_13960" style="mask-type:alpha" maskUnits="userSpaceOnUse" x="0" y="0" width="1440" height="839">
<path d="M0 0H1440V742.5C1440 742.5 1213.5 838.5 720 838.5C226.5 838.5 0 742.5 0 742.5V0Z" fill="#A26A23"/>
</mask>
<g mask="url(#mask0_8843_13960)">
<path d="M995.681 644.717C995.802 641.713 995.948 638.727 996.102 635.821C1006.76 646.778 1015.96 653.643 1015.96 653.643C1019.84 656.627 1024.9 658.424 1030.46 658.387C1042.95 658.316 1053.21 649.068 1053.38 637.718C1053.55 626.369 1043.58 617.227 1031.09 617.298C1028.1 617.317 1025.25 617.876 1022.63 618.84C1012.95 623.112 1012.45 629.31 1013.56 633.479C1013.56 633.479 997.434 617.058 997.872 588.468C997.912 586.66 997.784 584.747 997.583 582.78C996.89 567.42 995.247 551.83 992.261 536.358C1048.09 463.628 1088.27 451.314 1088.27 451.314C1129.23 460.027 1175.57 552.964 1175.57 552.964C1175.57 552.964 1172.11 614.753 1132.22 643.84C1132.54 640.304 1131.56 635.384 1125.4 631.486C1117.55 626.533 1107.26 628.899 1100.8 634.683C1097.04 638.368 1094.69 643.239 1094.61 648.617C1094.44 659.966 1104.44 669.106 1116.91 669.037C1121.18 669.01 1125.15 667.905 1128.58 666.018L1128.58 666.058C1128.58 666.058 1128.81 665.911 1128.92 665.819C1129.81 665.297 1130.68 664.736 1131.5 664.12C1153.05 649.678 1195.26 611.725 1184.04 561.542C1185.57 461.774 1099.03 407.916 1099.03 407.916L1099.21 395.726C1099.27 392.359 1096.3 389.65 1092.6 389.681C1088.89 389.692 1085.85 392.442 1085.81 395.807L1085.62 407.999C1015.7 439.139 987.795 516.59 987.799 516.63C962.826 414.065 961.865 292.872 1065.08 292.295C1068.87 291.969 1072.78 291.752 1076.89 291.781C1183.73 292.72 1239.74 407.329 1207.19 522.182C1174.69 637.03 1150.79 720.669 1143.3 756.068C1136.62 787.551 1125.04 846.935 1064.57 846.349C1054.51 847.461 1042.9 846.787 1029.42 843.639C946.661 824.434 975.902 742.154 975.902 742.154C975.902 742.154 989.981 700.466 995.677 644.677" fill="white" fill-opacity="0.15"/>
<path d="M894.761 510.918C894.388 507.933 893.994 504.97 893.56 502.053C883.953 514.164 875.414 521.991 875.414 521.991C871.823 525.382 866.952 527.711 861.45 528.275C849.066 529.544 838.082 521.415 836.923 510.099C835.763 498.783 844.868 488.574 857.252 487.305C860.215 487.002 863.078 487.264 865.757 487.935C875.744 491.169 876.755 497.297 876.047 501.586C876.047 501.586 890.619 483.454 887.697 454.94C887.512 453.129 887.452 451.222 887.472 449.225C886.839 433.824 887.095 418.085 888.739 402.286C827.077 335.594 786.172 327.61 786.172 327.61C746.3 340.683 708.471 438.486 708.471 438.486C708.471 438.486 717.278 499.838 759.32 524.632C758.714 521.136 759.234 516.106 765.026 511.563C772.379 505.792 782.772 507.051 789.708 512.14C793.757 515.406 796.503 520.02 797.051 525.372C798.211 536.688 789.106 546.897 776.721 548.166C772.489 548.6 768.457 547.902 764.903 546.395L764.908 546.435C764.908 546.435 764.648 546.318 764.528 546.248C763.585 545.831 762.682 545.368 761.818 544.839C739.192 532.7 694.042 499.32 700.846 447.988C690.65 348.484 771.744 285.426 771.744 285.426L770.496 273.255C770.152 269.897 772.858 266.864 776.51 266.49C780.163 266.115 783.428 268.537 783.772 271.895L785.019 284.066C857.032 307.68 891.418 382.083 891.445 382.121C907.278 277.009 897.698 155.846 795.326 166.316C791.552 166.394 787.658 166.608 783.564 167.069C677.739 179.434 632.172 299.913 674.43 411.166C716.644 522.424 747.585 603.411 758.104 637.974C767.442 668.69 784.084 726.771 844 719.747C854.087 719.783 865.526 717.85 878.607 713.28C958.97 685.261 922.845 606.183 922.845 606.183C922.845 606.183 905.25 566.051 894.761 510.918Z" fill="white" fill-opacity="0.15"/>
</g>
</svg>
