<svg width="31" height="31" viewBox="0 0 31 31" fill="none" xmlns="http://www.w3.org/2000/svg">
<g clip-path="url(#clip0_7001_1776)">
<path d="M30.0879 15.5C30.0879 7.21573 23.3722 0.5 15.0879 0.5C6.80362 0.5 0.0878906 7.21573 0.0878906 15.5C0.0878906 23.7843 6.80362 30.5 15.0879 30.5C23.3722 30.5 30.0879 23.7843 30.0879 15.5Z" fill="white" fill-opacity="0.12"/>
<path d="M12.2153 15.5C12.2153 13.9123 13.5021 12.6248 15.0899 12.6248C16.6776 12.6248 17.9651 13.9123 17.9651 15.5C17.9651 17.0878 16.6776 18.3752 15.0899 18.3752C13.5021 18.3752 12.2153 17.0878 12.2153 15.5ZM10.661 15.5C10.661 17.946 12.6437 19.9288 15.0899 19.9288C17.5359 19.9288 19.5187 17.946 19.5187 15.5C19.5187 13.0539 17.5359 11.0712 15.0899 11.0712C12.6437 11.0712 10.661 13.0539 10.661 15.5ZM18.659 10.8956C18.659 11.4669 19.1223 11.9309 19.6943 11.9309C20.2655 11.9309 20.7296 11.4669 20.7296 10.8956C20.7296 10.3243 20.2662 9.86098 19.6943 9.86098C19.1223 9.86098 18.659 10.3243 18.659 10.8956ZM11.605 22.5205C10.7641 22.4822 10.3071 22.3422 10.0033 22.2238C9.60061 22.067 9.31358 21.8802 9.01126 21.5786C8.70953 21.2769 8.52218 20.9899 8.36611 20.5873C8.24768 20.2835 8.10766 19.8265 8.06933 18.9855C8.02748 18.0763 8.01916 17.8033 8.01916 15.5C8.01916 13.1967 8.02823 12.9244 8.06933 12.0145C8.10766 11.1736 8.24836 10.7173 8.36611 10.4128C8.52286 10.0101 8.70953 9.72305 9.01126 9.42073C9.31291 9.119 9.59993 8.93165 10.0033 8.77557C10.3071 8.65715 10.7641 8.51713 11.605 8.4788C12.5142 8.43695 12.7873 8.42862 15.0899 8.42862C17.3931 8.42862 17.6655 8.4377 18.5754 8.4788C19.4163 8.51713 19.8726 8.65782 20.177 8.77557C20.5797 8.93165 20.8668 9.119 21.1691 9.42073C21.4708 9.72238 21.6575 10.0101 21.8143 10.4128C21.9327 10.7166 22.0727 11.1736 22.1111 12.0145C22.1528 12.9244 22.1612 13.1967 22.1612 15.5C22.1612 17.8026 22.1528 18.0757 22.1111 18.9855C22.0727 19.8265 21.932 20.2835 21.8143 20.5873C21.6575 20.9899 21.4708 21.2769 21.1691 21.5786C20.8675 21.8802 20.5797 22.067 20.177 22.2238C19.8733 22.3422 19.4163 22.4822 18.5754 22.5205C17.6662 22.5623 17.3931 22.5707 15.0899 22.5707C12.7873 22.5707 12.5142 22.5623 11.605 22.5205ZM11.534 6.92725C10.6157 6.96905 9.98866 7.11466 9.44041 7.32785C8.87326 7.548 8.39258 7.8434 7.91258 8.32272C7.43324 8.80205 7.13784 9.28272 6.91769 9.85055C6.7045 10.3989 6.55889 11.0259 6.5171 11.9441C6.47459 12.8637 6.46484 13.1578 6.46484 15.5C6.46484 17.8422 6.47459 18.1362 6.5171 19.0559C6.55889 19.9741 6.7045 20.6011 6.91769 21.1495C7.13784 21.7165 7.43254 22.198 7.91258 22.6773C8.39191 23.1566 8.87258 23.4513 9.44041 23.6721C9.98941 23.8854 10.6157 24.031 11.534 24.0727C12.4543 24.1146 12.7476 24.125 15.0899 24.125C17.4328 24.125 17.7261 24.1152 18.6458 24.0727C19.564 24.031 20.191 23.8854 20.7393 23.6721C21.3064 23.4513 21.7871 23.1566 22.2671 22.6773C22.7465 22.198 23.0411 21.7165 23.262 21.1495C23.4752 20.6011 23.6215 19.9741 23.6626 19.0559C23.7044 18.1356 23.7141 17.8422 23.7141 15.5C23.7141 13.1578 23.7044 12.8637 23.6626 11.9441C23.6208 11.0259 23.4752 10.3989 23.262 9.85055C23.0411 9.28347 22.7465 8.80272 22.2671 8.32272C21.7878 7.8434 21.3064 7.548 20.74 7.32785C20.191 7.11466 19.564 6.96836 18.6464 6.92725C17.7268 6.88545 17.4328 6.875 15.0905 6.875C12.7476 6.875 12.4543 6.88475 11.534 6.92725Z" fill="white"/>
</g>
<defs>
<clipPath id="clip0_7001_1776">
<rect width="30" height="30" fill="white" transform="translate(0.0878906 0.5)"/>
</clipPath>
</defs>
</svg>
