<svg width="1224" height="987" viewBox="0 0 1224 987" fill="none" xmlns="http://www.w3.org/2000/svg">
<g clip-path="url(#clip0_9130_517)">
<path d="M624.92 339.81C625.18 337.77 625.46 335.74 625.75 333.76C631.65 342 636.92 347.32 636.92 347.32C639.14 349.63 642.15 351.22 645.6 351.58C653.34 352.41 660.28 346.81 661.11 339.07C661.94 331.33 656.34 324.39 648.6 323.55C646.75 323.36 644.95 323.54 643.27 324.02C637 326.27 636.3 330.46 636.71 333.38C636.71 333.38 627.76 321.03 629.85 301.53C629.98 300.3 630.04 298.99 630.03 297.63C630.57 287.1 630.55 276.33 629.67 265.55C668.86 219.78 694.53 214.19 694.53 214.19C719.35 223.01 742.15 289.74 742.15 289.74C742.15 289.74 736.08 331.71 709.54 348.78C709.96 346.39 709.67 342.96 706.09 339.87C701.54 335.94 695.02 336.84 690.65 340.34C688.09 342.59 686.32 345.76 685.93 349.42C685.1 357.16 690.71 364.1 698.45 364.93C701.09 365.21 703.62 364.74 705.87 363.69V363.72C705.93 363.68 706.02 363.63 706.1 363.59C706.69 363.3 707.26 362.98 707.8 362.62C722.07 354.26 750.62 331.3 746.84 296.23C754.12 228.18 703.94 185.35 703.94 185.35L704.82 177.03C705.07 174.74 703.41 172.68 701.12 172.44C698.82 172.19 696.77 173.85 696.53 176.15L695.64 184.47C650.36 200.84 628.17 251.79 628.16 251.82C619.2 180.02 626.3 97.17 690.27 104C692.63 104.04 695.07 104.17 697.62 104.48C763.73 112.6 791.14 194.81 763.7 270.98C736.27 347.15 716.17 402.61 709.28 426.27C703.15 447.3 692.2 487.05 654.79 482.43C648.49 482.49 641.33 481.21 633.19 478.13C583.16 459.22 606.49 405.07 606.49 405.07C606.49 405.07 617.86 377.58 624.93 339.87" fill="#1E1F1E"/>
<path d="M547.971 241.78C547.931 239.72 547.871 237.68 547.791 235.67C541.051 243.24 535.241 247.97 535.241 247.97C532.791 250.03 529.621 251.28 526.161 251.28C518.381 251.28 512.061 244.98 512.061 237.19C512.061 229.4 518.371 223.09 526.161 223.09C528.021 223.09 529.791 223.46 531.411 224.12C537.411 227.02 537.651 231.26 536.931 234.13C536.931 234.13 547.141 222.81 547.141 203.2C547.141 201.96 547.221 200.65 547.371 199.3C547.961 188.77 549.121 178.08 551.151 167.44C517.061 117.76 492.121 109.47 492.121 109.47C466.491 115.59 436.731 179.52 436.731 179.52C436.731 179.52 438.291 221.9 462.861 241.69C462.701 239.27 463.351 235.88 467.241 233.19C472.181 229.77 478.571 231.35 482.551 235.3C484.851 237.81 486.271 241.14 486.271 244.82C486.271 252.6 479.961 258.92 472.171 258.92C469.521 258.92 467.041 258.17 464.931 256.89V256.92C464.861 256.88 464.781 256.82 464.711 256.76C464.151 256.41 463.621 256.03 463.121 255.62C449.831 245.78 423.871 219.91 431.371 185.45C431.371 117.02 485.821 79.76 485.821 79.76V71.4C485.821 69.1 487.691 67.22 490.001 67.22C492.311 67.22 494.171 69.09 494.171 71.4V79.76C537.451 100.86 554.101 153.89 554.111 153.91C570.661 83.47 572.421 0.340024 508.091 0.320024C505.731 0.110024 503.301 -0.0199756 500.731 0.0100244C434.131 1.05002 398.121 79.87 417.311 158.53C436.471 237.19 450.561 294.47 454.901 318.73C458.751 340.29 465.401 380.98 503.101 380.37C509.371 381.09 516.611 380.59 525.031 378.39C576.791 364.92 559.361 308.58 559.361 308.58C559.361 308.58 550.971 280.04 547.961 241.79" fill="#1E1F1E"/>
<path d="M252.74 685.04C256.09 685.04 259.01 687.96 259.01 690.89V823.73C259.01 827.49 256.92 831.25 254 833.75C228.93 855.06 190.5 867.59 150.4 867.59C60.15 867.59 0 807.43 0 717.2C0 626.97 60.15 566.81 150.39 566.81C181.3 566.81 213.89 576 238.11 591.03C241.46 592.71 242.7 596.05 241.87 598.55L220.98 659.96C219.73 662.89 216.81 664.14 213.05 663.31C195.92 654.12 173.78 648.69 152.89 648.69C114.45 648.69 88.56 676.26 88.56 717.2C88.56 758.14 114.45 786.55 152.89 786.55C168.35 786.55 178.79 783.62 183.39 778.61V754.38H144.96C141.2 754.38 138.69 752.71 138.27 749.79L132.84 692.14C132.42 687.96 134.92 685.04 139.52 685.04H252.73H252.74Z" fill="#1E1F1E"/>
<path d="M525.511 746.87C525.511 819.55 476.211 868.02 402.691 868.02C329.171 868.02 279.881 819.56 279.881 747.29C279.881 675.02 329.171 626.14 402.691 626.14C476.211 626.14 525.511 674.6 525.511 746.87ZM361.331 747.28C361.331 774.44 378.041 792.81 402.691 792.81C427.341 792.81 444.051 774.43 444.051 746.86C444.051 719.29 427.351 701.33 402.691 701.33C378.031 701.33 361.331 719.71 361.331 747.28Z" fill="#1E1F1E"/>
<path d="M680.471 573.5C735.201 573.5 771.541 606.08 771.541 654.96C771.541 685.04 756.921 707.18 734.361 713.86C760.681 720.54 777.811 745.61 777.811 780.29C777.811 829.16 741.461 861.75 687.161 861.75H554.731C551.381 861.75 548.881 858.83 548.881 855.91V579.78C548.881 576.85 551.391 573.51 554.731 573.51H680.471V573.5ZM661.251 686.7C673.781 686.7 682.141 679.18 682.141 667.49C682.141 655.8 673.781 648.27 661.251 648.27H634.931V686.7H661.251ZM668.771 786.97C680.881 786.97 689.241 779.03 689.241 766.91C689.241 754.79 680.881 746.86 668.771 746.86H634.931V786.97H668.771Z" fill="#1E1F1E"/>
<path d="M934.02 631.98C937.37 631.98 939.87 634.49 939.87 637.83V692.13C939.87 695.48 937.36 697.98 934.02 697.98H923.16C907.29 697.98 893.08 705.09 887.65 715.53V855.47C887.65 858.82 884.73 861.74 881.39 861.74H807.87C804.52 861.74 801.6 858.82 801.6 855.47V638.24C801.6 635.32 804.52 632.39 807.87 632.39H855.07C858.42 632.39 860.5 635.32 861.76 638.66L868.03 657.04C880.56 641.58 901.03 631.97 923.17 631.97H934.03L934.02 631.98Z" fill="#1E1F1E"/>
<path d="M1193.84 746.87C1193.84 819.55 1144.54 868.02 1071.02 868.02C997.501 868.02 948.211 819.56 948.211 747.29C948.211 675.02 997.501 626.14 1071.02 626.14C1144.54 626.14 1193.84 674.6 1193.84 746.87ZM1029.66 747.28C1029.66 774.44 1046.37 792.81 1071.02 792.81C1095.67 792.81 1112.38 774.43 1112.38 746.86C1112.38 719.29 1095.68 701.33 1071.02 701.33C1046.36 701.33 1029.66 719.71 1029.66 747.28Z" fill="#1E1F1E"/>
<path d="M1176.23 844.32C1176.23 831.09 1186.45 821.06 1200.07 821.06C1213.69 821.06 1223.91 831.09 1223.91 844.32C1223.91 857.55 1213.7 867.58 1200.07 867.58C1186.44 867.58 1176.23 857.56 1176.23 844.32ZM1216.78 844.32C1216.78 834.81 1210.03 827.62 1200.07 827.62C1190.11 827.62 1183.37 834.82 1183.37 844.32C1183.37 853.82 1190.11 861.03 1200.07 861.03C1210.03 861.03 1216.78 853.83 1216.78 844.32ZM1187.67 844.39C1187.67 836.93 1193.65 831.6 1201.48 831.6C1204.19 831.6 1206.82 832.31 1208.88 833.59V840.72C1206.95 839.57 1204.7 838.73 1202.45 838.73C1198.66 838.73 1196.22 841.11 1196.22 844.32C1196.22 847.53 1198.66 849.91 1202.58 849.91C1204.83 849.91 1207.34 849.14 1209.2 847.79V854.86C1207.01 856.27 1204.25 857.05 1201.36 857.05C1193.2 857.05 1187.67 851.59 1187.67 844.39Z" fill="#1E1F1E"/>
<path d="M754.079 931.61C764.289 931.61 771.069 937.69 771.069 946.81C771.069 952.42 768.349 956.55 764.139 957.8C769.049 959.05 772.239 963.72 772.239 970.19C772.239 979.31 765.459 985.39 755.329 985.39H730.629C730.009 985.39 729.539 984.84 729.539 984.3V932.8C729.539 932.26 730.009 931.63 730.629 931.63H754.079V931.61ZM750.499 952.73C752.829 952.73 754.399 951.32 754.399 949.15C754.399 946.98 752.839 945.56 750.499 945.56H745.589V952.73H750.499ZM751.899 971.42C754.159 971.42 755.719 969.94 755.719 967.68C755.719 965.42 754.159 963.94 751.899 963.94H745.589V971.42H751.899Z" fill="#1E1F1E"/>
<path d="M343.171 971.35C343.711 971.35 344.181 971.82 344.181 972.44L343.091 984.28C343.011 984.82 342.471 985.37 341.841 985.37H313.721C313.101 985.37 312.551 984.83 312.551 984.28V932.78C312.551 932.16 313.091 931.61 313.721 931.61H327.511C328.131 931.61 328.681 932.16 328.681 932.78V971.35H343.181H343.171Z" fill="#1E1F1E"/>
<path d="M402.98 981.01C403.14 981.55 402.98 981.87 402.44 982.18C398.31 984.91 392.31 986.54 386.32 986.54C372.52 986.54 363.33 977.5 363.33 964.03C363.33 950.56 372.37 941.43 385.92 941.43C399.47 941.43 406.49 949.76 406.49 963.95C406.49 965.12 406.42 966.28 406.18 967.45C406.1 968.08 405.71 968.39 405.01 968.39H380C380 968.39 380 973.3 386.55 973.3C390.52 973.3 394.97 972.36 398.47 970.72C399.01 970.49 399.49 970.8 399.64 971.35L402.99 981.01H402.98ZM390.98 960.2C390.98 956.77 388.88 954.51 385.76 954.51C382.26 954.51 379.92 956.76 379.92 960.2H390.98Z" fill="#1E1F1E"/>
<path d="M453.369 942.52C454.079 942.52 454.539 942.99 454.539 943.61L453.689 951.17C453.619 951.79 453.149 952.34 452.519 952.34H447.529V984.2C447.529 984.82 446.989 985.37 446.359 985.37H432.649C432.029 985.37 431.479 984.83 431.479 984.2V952.34H427.039C426.489 952.34 425.949 951.86 425.949 951.25V943.69C425.949 942.99 426.489 942.52 427.039 942.52H431.479V934.03C431.479 933.48 432.029 933.01 432.649 932.94L446.359 931.62C446.979 931.54 447.529 932.16 447.529 932.71V942.53H453.369V942.52Z" fill="#1E1F1E"/>
<path d="M479.921 945.8L474.391 941.21C475.941 940.64 477.291 939.71 478.401 938.41C479.521 937.11 480.181 935.75 480.381 934.32C480.581 932.89 480.141 931.68 479.061 930.7C477.811 929.66 477.011 928.67 476.641 927.73C476.281 926.8 476.091 925.89 476.091 925.01C476.091 923.24 476.731 921.78 478.011 920.61C479.281 919.44 480.851 918.86 482.721 918.86C484.591 918.86 486.021 919.31 487.171 920.23C488.311 921.14 489.151 922.36 489.701 923.89C490.241 925.42 490.521 927.12 490.521 928.99C490.521 931.79 490.041 934.28 489.081 936.43C488.121 938.59 486.831 940.43 485.221 941.95C483.611 943.49 481.851 944.77 479.931 945.81" fill="#1E1F1E"/>
<path d="M515.979 971.81C516.139 971.34 516.599 971.27 516.989 971.5C520.029 973.29 523.299 974.7 525.959 974.7C527.599 974.86 528.689 973.93 528.689 972.75C528.689 968.77 511.619 970.03 511.619 955.38C511.619 947.05 518.709 941.43 529.309 941.43C534.369 941.43 540.449 943.22 544.589 945.87C544.979 946.18 545.209 946.58 545.049 946.96L541.079 956.16C540.919 956.62 540.459 956.7 540.059 956.47C537.029 954.52 533.759 953.27 531.099 953.27C529.459 953.11 528.369 953.89 528.369 955.14C528.369 959.27 545.429 957.79 545.429 972.59C545.429 980.93 538.579 986.54 528.209 986.54C523.149 986.54 516.839 984.75 512.469 982.1C512.079 981.71 511.849 981.32 511.999 980.85L515.979 971.81Z" fill="#1E1F1E"/>
<path d="M640.069 952.41C640.689 952.41 641.239 952.95 641.239 953.5V978.28C641.239 978.99 640.849 979.69 640.299 980.15C635.619 984.13 628.459 986.46 620.989 986.46C604.159 986.46 592.939 975.24 592.939 958.41C592.939 941.58 604.159 930.36 620.989 930.36C626.749 930.36 632.829 932.08 637.349 934.87C637.969 935.19 638.209 935.81 638.059 936.28L634.159 947.74C633.919 948.28 633.379 948.52 632.669 948.36C629.479 946.64 625.349 945.63 621.449 945.63C614.279 945.63 609.449 950.77 609.449 958.41C609.449 966.05 614.279 971.35 621.449 971.35C624.329 971.35 626.279 970.8 627.139 969.86V965.35H619.969C619.269 965.35 618.799 965.04 618.719 964.49L617.709 953.74C617.629 952.96 618.099 952.42 618.959 952.42H640.069V952.41Z" fill="#1E1F1E"/>
<path d="M708.06 963.95C708.06 977.5 698.87 986.54 685.16 986.54C671.45 986.54 662.25 977.51 662.25 964.03C662.25 950.55 671.45 941.43 685.16 941.43C698.87 941.43 708.06 950.47 708.06 963.96M677.44 964.02C677.44 969.08 680.55 972.51 685.16 972.51C689.77 972.51 692.87 969.08 692.87 963.95C692.87 958.82 689.76 955.45 685.16 955.45C680.56 955.45 677.44 958.88 677.44 964.02Z" fill="#1E1F1E"/>
<path d="M818.501 942.52C819.121 942.52 819.591 942.99 819.591 943.61V953.74C819.591 954.36 819.111 954.83 818.501 954.83H816.481C813.511 954.83 810.871 956.15 809.851 958.1V984.2C809.851 984.82 809.311 985.37 808.681 985.37H794.971C794.351 985.37 793.801 984.83 793.801 984.2V943.68C793.801 943.14 794.341 942.59 794.971 942.59H803.771C804.391 942.59 804.781 943.14 805.021 943.76L806.191 947.19C808.531 944.31 812.341 942.51 816.481 942.51H818.501V942.52Z" fill="#1E1F1E"/>
<path d="M882.521 963.95C882.521 977.5 873.331 986.54 859.621 986.54C845.911 986.54 836.711 977.51 836.711 964.03C836.711 950.55 845.911 941.43 859.621 941.43C873.331 941.43 882.521 950.47 882.521 963.96M851.901 964.02C851.901 969.08 855.011 972.51 859.621 972.51C864.231 972.51 867.331 969.08 867.331 963.95C867.331 958.82 864.211 955.45 859.621 955.45C855.031 955.45 851.901 958.88 851.901 964.02Z" fill="#1E1F1E"/>
</g>
<defs>
<clipPath id="clip0_9130_517">
<rect width="1223.91" height="986.54" fill="white"/>
</clipPath>
</defs>
</svg>
