<svg width="31" height="31" viewBox="0 0 31 31" fill="none" xmlns="http://www.w3.org/2000/svg">
<g clip-path="url(#clip0_7001_1768)">
<path d="M30.0957 15.5C30.0957 7.21573 23.38 0.5 15.0957 0.5C6.81143 0.5 0.0957031 7.21573 0.0957031 15.5C0.0957031 23.7843 6.81143 30.5 15.0957 30.5C23.38 30.5 30.0957 23.7843 30.0957 15.5Z" fill="white" fill-opacity="0.12"/>
<path d="M18.0977 12.875C19.2912 12.875 20.4358 13.3491 21.2797 14.1931C22.1236 15.037 22.5977 16.1815 22.5977 17.375V22.6251H19.5977V17.375C19.5977 16.9772 19.4396 16.5957 19.1584 16.3144C18.8771 16.033 18.4955 15.875 18.0977 15.875C17.6999 15.875 17.3183 16.033 17.037 16.3144C16.7557 16.5957 16.5977 16.9772 16.5977 17.375V22.6251H13.5977V17.375C13.5977 16.1815 14.0717 15.037 14.9157 14.1931C15.7596 13.3491 16.9042 12.875 18.0977 12.875Z" fill="white"/>
<path d="M10.5957 13.625H7.5957V22.6251H10.5957V13.625Z" fill="white"/>
<path d="M9.0957 11.3755C9.92415 11.3755 10.5957 10.7039 10.5957 9.87549C10.5957 9.04704 9.92415 8.37549 9.0957 8.37549C8.26725 8.37549 7.5957 9.04704 7.5957 9.87549C7.5957 10.7039 8.26725 11.3755 9.0957 11.3755Z" fill="white"/>
</g>
<defs>
<clipPath id="clip0_7001_1768">
<rect width="30" height="30" fill="white" transform="translate(0.0957031 0.5)"/>
</clipPath>
</defs>
</svg>
