<svg viewBox="0 0 223 46" fill="none" xmlns="http://www.w3.org/2000/svg">
<g clip-path="url(#clip0_18041_1529)">
<path fill-rule="evenodd" clip-rule="evenodd" d="M223.17 35.3363C223.17 35.3363 223.17 35.5803 223.17 35.6151C222.996 35.5454 219.999 35.65 218.326 35.65C217.281 35.6151 214.423 35.5106 213.412 35.3363C212.506 35.1969 211.74 35.6848 210.729 35.6848C208.882 35.65 204.735 35.7545 201.982 35.4757C199.961 35.2666 197.312 35.5454 196.023 35.5454V10.2803H223.17C223.17 10.3848 223.17 35.3363 223.17 35.3363ZM220.626 24.6727C220.521 24.4985 219.79 23.5227 216.932 23.5227C215.224 23.5227 212.82 24.2545 210.834 25.4394C210.81 25.4394 210.799 25.4394 210.799 25.4394C210.624 25.0909 210.137 20.8394 210.381 17.6333C210.381 17.6333 210.392 17.6333 210.415 17.6333C210.59 17.7727 212.402 19.0969 212.611 20.8394C212.611 20.8742 212.646 20.8742 212.646 20.8394C212.715 20.3515 212.924 17.9818 211.74 16.8666V16.8318C212.088 16.9015 214.353 17.4939 215.224 20.0727C215.329 19.4454 215.434 15.7166 212.123 15.0894C212.297 14.9848 213.377 14.3575 214.737 15.2288C214.771 15.2288 214.771 15.2288 214.771 15.2288C214.597 14.95 213.447 13.2075 211.182 14.0439C211.147 14.0439 211.147 14.0091 211.147 14.0091C211.217 13.8697 211.531 13.2424 212.123 13.1378C211.844 13.0682 210.764 12.8939 210.241 13.6606H210.206L209.718 12.3712L209.231 13.6606C208.673 12.8939 207.593 13.0682 207.349 13.1378C207.314 13.1378 207.314 13.1378 207.349 13.1378C207.941 13.2424 208.255 13.8697 208.29 14.0091V14.0439C205.99 13.2075 204.874 14.95 204.7 15.2288C206.094 14.3575 207.14 14.9848 207.314 15.0894C204.038 15.7166 204.108 19.4454 204.212 20.0727C204.212 20.0727 204.212 20.0727 204.247 20.0727C205.084 17.4939 207.384 16.9015 207.697 16.8318C207.697 16.8318 207.732 16.8666 207.697 16.8666C206.512 17.9818 206.756 20.3515 206.791 20.8394C206.814 20.8626 206.826 20.8626 206.826 20.8394C207.07 19.0969 208.847 17.7727 209.056 17.6333C209.335 20.7 208.812 25.0212 208.638 25.4394C206.652 24.2545 204.247 23.5227 202.574 23.5227C199.717 23.5227 198.985 24.4985 198.881 24.6727C198.846 24.7075 198.881 24.7075 198.881 24.7075C200.937 24.0106 205.153 24.7075 207.627 26.3454C207.976 26.5777 208.313 26.8101 208.638 27.0424C208.638 27.0656 208.638 27.0772 208.638 27.0772C207.941 27.6697 207.244 28.3318 206.617 28.9242L206.024 28.75C205.99 28.75 205.99 28.75 205.99 28.75L206.164 29.3772C205.537 30.0045 204.979 30.5272 204.596 30.8409C204.421 30.806 204.212 30.806 203.934 31.05C203.69 31.2242 203.585 31.5378 203.69 31.8166C203.794 32.1303 204.073 32.3394 204.421 32.3394C204.445 32.3394 204.48 32.3394 204.526 32.3394C204.874 32.3394 205.188 32.3045 206.268 31.2939C206.443 31.1197 206.791 30.7712 207.174 30.3878C207.174 30.3646 207.174 30.353 207.174 30.353L207.871 30.5969C207.895 30.5969 207.906 30.5853 207.906 30.5621L207.732 29.8303C207.709 29.8303 207.709 29.8303 207.732 29.8303C208.29 29.2727 208.987 28.6106 209.718 27.9485C209.742 27.9485 209.753 27.9485 209.753 27.9485C210.59 28.6803 211.321 29.4121 211.949 30.0045L211.774 30.7015L212.437 30.4924C212.437 30.4924 212.437 30.504 212.437 30.5272C212.785 30.8409 213.064 31.1197 213.238 31.2939C214.318 32.3045 214.632 32.3394 214.981 32.3394C215.004 32.3394 215.039 32.3394 215.085 32.3394C215.503 32.3394 215.852 32.0257 215.852 31.5727C215.852 31.1545 215.503 30.806 215.085 30.806C215.015 30.806 214.946 30.8176 214.876 30.8409C214.562 30.5621 214.109 30.1091 213.552 29.6212V29.5863L213.761 28.8545C213.761 28.8313 213.749 28.8197 213.726 28.8197L212.994 29.0636C212.332 28.4363 211.565 27.7394 210.834 27.0772C210.834 27.0772 210.834 27.0656 210.834 27.0424C211.182 26.7985 211.531 26.5545 211.879 26.3454C214.318 24.7075 218.535 24.0106 220.591 24.7075C220.614 24.7075 220.626 24.6959 220.626 24.6727Z" fill="white"/>
<path d="M223.274 0.104492H196.023C196.023 0.104492 196.023 0.116108 196.023 0.139341V2.09086C196.023 2.11409 196.023 2.1257 196.023 2.1257H219.441C219.441 2.1257 219.441 2.11409 219.441 2.09086V0.871159H223.274V0.139341C223.274 0.116108 223.274 0.104492 223.274 0.104492Z" fill="white"/>
<path d="M196.023 3.44995C196.023 3.44995 196.023 3.46157 196.023 3.4848V5.43632H214.597V4.21662C214.62 4.21662 214.632 4.21662 214.632 4.21662H223.274V3.4848C223.274 3.46157 223.274 3.44995 223.274 3.44995H196.023Z" fill="white"/>
<path d="M196.023 6.86523C196.023 6.86523 196.023 6.87685 196.023 6.90008V8.8516C196.023 8.87483 196.023 8.88645 196.023 8.88645H209.579C209.602 8.88645 209.614 8.87483 209.614 8.8516V7.6319H223.274V6.90008C223.274 6.87685 223.274 6.86523 223.274 6.86523H196.023Z" fill="white"/>
<path d="M223.205 37.7757V37.2879L218.883 37.253C218.814 37.253 218.732 37.253 218.639 37.253H215.991C215.852 37.253 215.712 37.2414 215.573 37.2182L212.68 36.8C212.541 36.7768 212.39 36.7651 212.227 36.7651L208.952 36.8348C208.777 36.9394 208.603 37.0091 208.429 37.0788L208.359 37.1485C207.906 37.5667 206.094 37.9848 204.874 38.1939H196.058V38.2636V38.9606H223.205V37.7757Z" fill="white"/>
<path d="M218.535 44.153C218.442 44.153 218.349 44.153 218.256 44.153L213.377 44.1181C213.273 44.153 213.203 44.1878 213.099 44.2575L212.611 44.8151C212.402 44.8848 212.262 44.9545 212.053 45.0242L206.129 44.1181C206.083 44.1181 206.036 44.1065 205.99 44.0833L198.881 43.8394L198.393 44.0136C197.591 44.3272 196.859 44.6409 196.023 44.9545H196.058V45.8954C196.058 45.9186 196.058 45.9303 196.058 45.9303H223.205C223.205 45.9303 223.205 45.9186 223.205 45.8954V44.7454V44.2575L218.535 44.153Z" fill="white"/>
<path d="M196.058 42.4455H223.205V41.2606V40.8076L218.57 40.8424L213.064 40.5636C212.878 40.5636 212.704 40.5636 212.541 40.5636L209.405 41.4349C209.288 41.4349 209.184 41.4349 209.091 41.4349L204.7 40.3894C204.456 40.4591 204.247 40.5288 204.038 40.5985L203.48 41.1212C203.306 41.2955 203.097 41.5394 202.853 41.6788H196.058V41.7833V42.4455Z" fill="white"/>
<path fill-rule="evenodd" clip-rule="evenodd" d="M32.6185 13.4515C32.8624 13.7651 33.2109 14.1136 33.42 14.3575L32.6185 15.0893V19.4106L31.9215 21.6409H27.9836C26.4503 21.6409 25.9973 21.606 24.8821 20.5954C24.1852 21.153 23.2791 21.6409 22.4427 21.6409H5.47152V17.2151H5.36697C5.08819 18.9575 4.53061 20.6999 3.48516 21.9196L0.0351562 21.5015V21.2575C1.3594 20.6999 2.68364 20.2121 3.6594 19.3757C3.27607 17.6333 2.26546 16.4136 1.3594 15.5075L1.01091 15.6818L0.453338 14.8802C0.139702 14.3924 0.41849 13.9742 0.697277 13.556L1.15031 12.9287H1.4291C2.64879 14.5318 3.52 16.7621 3.93819 19.1318C4.8094 18.2954 5.40182 17.1106 5.47152 15.2287V14.6363C5.43667 14.5666 5.43667 14.5318 5.43667 14.4969L5.47152 14.0439L6.16849 12.4409H6.30788V19.5499H23.9761C23.4533 18.9227 22.8958 18.156 22.1988 17.3196V17.1106L22.9655 15.7515C23.5927 15.5075 24.3942 15.1939 25.3352 15.1939C27.217 15.1939 28.123 16.2742 27.9488 17.3893C27.8094 18.6439 26.3458 19.306 25.7185 19.5499H31.817V14.9499L31.0155 13.9045C30.9458 13.7651 30.9806 13.6257 31.0852 13.556L32.4094 12.406L32.5488 12.5106L32.6185 12.4757V13.4515ZM25.0912 19.5151C25.4049 19.3409 26.6942 18.7833 26.7639 17.9469C26.8336 17.1802 25.7882 16.9015 24.7776 16.9015C24.0458 16.9015 23.1746 17.0409 22.7564 17.2151C23.523 18.2257 24.22 19.3409 25.0912 19.5151Z" fill="white"/>
<path d="M35.4409 19.55V12.4409H35.3015L34.6045 14.0439V22.1636H34.7439L35.4409 19.55Z" fill="white"/>
<path d="M41.5741 13.5908C41.609 13.5908 41.609 13.556 41.609 13.556L42.5151 14.4272L43.3514 13.5908C43.4211 13.5211 43.4211 13.4166 43.3514 13.3469L42.5151 12.5105L41.609 13.3817C41.609 13.3469 41.609 13.3469 41.5741 13.3469L40.7726 12.5105L39.7969 13.4514L40.7726 14.4272L41.5741 13.5908Z" fill="white"/>
<path d="M66.1426 13.6606C66.2123 13.5909 66.2123 13.4863 66.1426 13.3818L65.2714 12.5454L64.2607 13.5212L65.2714 14.5318L66.1426 13.6606Z" fill="white"/>
<path fill-rule="evenodd" clip-rule="evenodd" d="M70.0108 21.6408H69.9759H69.9062C69.2789 21.6408 68.7911 21.3969 68.5123 21.0135L68.338 21.6408H45.9653C45.9188 21.6408 45.8724 21.6292 45.8259 21.6059L45.7562 21.6408H43.6305V20.0726L43.2471 21.1529L42.9683 21.2575C42.5153 21.1529 41.1911 20.8393 40.8077 20.6999C40.3896 20.5953 40.0062 20.3514 39.9365 20.0378L40.1805 18.4696C40.3547 18.1559 40.6335 17.9469 41.1214 17.6332L43.6305 15.9256V15.4726L44.3274 14.4969H44.4668V19.5499H45.7562L45.8259 19.5847C45.8724 19.5615 45.9188 19.5499 45.9653 19.5499H61.1593C61.3683 19.3176 61.6123 19.062 61.8911 18.7832V14.915L61.1244 13.8696C61.0547 13.7302 61.0547 13.5908 61.1593 13.5211L62.5183 12.3711L62.6229 12.4408H62.6926V13.4165C62.9365 13.7302 63.3199 14.0787 63.5289 14.3226L62.6926 15.0544V17.215L62.2744 18.2953L62.3441 18.3302C63.3896 17.3196 64.6789 16.2741 66.0032 15.6469C66.1774 15.5772 66.3865 15.5423 66.5608 15.5772C68.2335 15.7165 69.5577 17.3544 68.8956 19.5499H76.388C76.3183 19.2014 76.1441 18.5044 75.8653 17.8075C75.5517 18.2605 74.8547 18.9923 73.8789 18.9923C72.8683 18.9923 71.5789 18.2256 72.1365 16.2741C72.3805 15.3332 73.0426 14.0787 74.3668 14.0787C76.5274 14.0787 76.7365 17.5984 76.7365 18.8529L76.0396 21.6408H70.0108ZM75.6562 17.3196C75.2032 16.4135 74.6108 15.612 73.8441 15.6469C73.4259 15.6469 72.5896 15.8559 72.2062 16.5529C72.5199 17.1105 73.635 17.4938 74.5411 17.4938C74.9244 17.4938 75.3077 17.4241 75.6562 17.3196ZM43.6305 16.2393L43.4214 16.5878C43.282 16.9014 42.9683 17.1802 42.6547 17.3544L40.5289 18.4696C41.435 18.8181 42.6547 19.0272 43.6305 19.2711V16.2393ZM68.6865 19.5499C68.6865 18.5393 67.9199 17.2847 66.0729 17.2847C64.4002 17.7029 62.7623 18.4696 61.5077 19.5499H68.6865Z" fill="white"/>
<path d="M75.0984 12.441C75.203 12.3713 75.203 12.2668 75.0984 12.1622L74.2621 11.291L73.2515 12.3016L74.2621 13.3122L75.0984 12.441Z" fill="white"/>
<path d="M86.0758 20.7348C86.494 19.9449 87.1096 19.457 87.9227 19.2712V19.4454C87.9227 20.7696 88.6894 21.6409 90.0136 21.6409H90.153C91.4076 21.606 92.4182 20.9787 92.697 20.9787C92.8015 20.9787 92.9409 21.0484 93.0106 21.0833L95.1015 22.0939H95.3455L95.9379 20.3515L94.3697 19.4106C94.1258 19.2015 93.9864 18.9575 93.9864 18.5393V15.0893L94.8227 14.3575C94.5788 14.1136 94.2303 13.7651 93.9864 13.4166V12.4757H93.9167L93.8121 12.406L92.453 13.556C92.3485 13.6257 92.3485 13.7651 92.4182 13.9045L93.1849 14.9499V18.0515C93.1849 18.3999 93.2546 18.7136 93.394 19.0272C92.5576 19.4106 91.0939 19.5499 90.0136 19.5499H89.2121C88.8985 19.5499 88.6894 19.4106 88.55 19.2015C88.5849 19.2015 88.6546 19.1666 88.7243 19.1666C88.7475 19.1666 88.7823 19.1666 88.8288 19.1666H89.2121L89.5258 17.8075L89.3864 17.5287L89.0379 17.4939C86.8773 17.4242 84.403 15.5424 83.044 15.5424C82.4167 15.5424 81.894 15.9257 81.6152 16.6575L81.3015 17.5287L81.4061 17.5984C81.5455 17.3893 81.7894 16.9712 82.2773 16.9712C83.1834 16.9712 85.7273 18.3999 87.5743 18.9575C86.8424 19.306 85.7621 19.5499 84.194 19.5499H80.0121H79.9773H79.0712V12.4409H78.9318L78.2349 14.0439V21.6409H79.9773H80.0121H84.5773C85.1697 21.6409 85.7273 21.2924 86.0758 20.7348Z" fill="white"/>
<path d="M100.782 13.5908C100.817 13.5908 100.817 13.556 100.817 13.556L101.723 14.4272L102.559 13.5908C102.629 13.5211 102.629 13.4166 102.559 13.3469L101.723 12.5105L100.817 13.3817C100.817 13.3469 100.817 13.3469 100.782 13.3469L99.9455 12.5105L98.9697 13.4514L99.9455 14.4272L100.782 13.5908Z" fill="white"/>
<path d="M120.82 22.9651L119.914 23.8015C119.914 23.8015 119.914 23.8014 119.879 23.7666L119.077 22.9651L118.102 23.906L119.077 24.8818L119.879 24.0105C119.914 24.0105 119.914 24.0105 119.914 23.9757L120.82 24.8818L121.656 24.0105C121.726 23.9408 121.726 23.8363 121.656 23.7666L120.82 22.9651Z" fill="white"/>
<path fill-rule="evenodd" clip-rule="evenodd" d="M137.373 19.4106L138.941 20.3515L138.314 22.0939H138.07L136.014 21.0833C135.909 21.0484 135.805 20.9787 135.7 20.9787C135.386 20.9787 134.376 21.606 133.086 21.6409H132.808C132.006 21.6409 131.449 21.1181 131.309 20.2818L130.612 21.6409H127.406L126.047 20.1424L125.246 21.6409H122.318C121.517 21.6409 120.959 21.1181 120.82 20.2818L120.088 21.6409H105.173C105.126 21.6409 105.08 21.6292 105.033 21.606L104.964 21.6409H102.838V20.0727L102.455 21.153L102.176 21.2575C101.723 21.153 100.399 20.8393 99.9804 20.6999C99.5622 20.5954 99.1789 20.3515 99.144 20.0378L99.388 18.4696C99.5622 18.156 99.841 17.9469 100.329 17.6333L102.838 15.9257V15.4727L103.535 14.4969H103.674V19.5499H104.964L105.033 19.5848C105.08 19.5616 105.126 19.5499 105.173 19.5499H120.75C120.785 18.7484 121.064 17.7378 121.273 17.0409H121.447V18.5393C121.447 19.2712 121.656 19.5499 122.388 19.5499H122.493H125.49L123.329 17.2151L123.852 14.4621L128.835 12.406L128.974 12.5454V13.9742L123.886 15.6818L127.65 19.5499H131.135V14.9499L130.368 13.9045C130.299 13.7651 130.333 13.6257 130.438 13.556L131.762 12.406L131.902 12.5106L131.936 12.4757V13.4515C132.18 13.7651 132.564 14.1136 132.773 14.3575L131.936 15.0893V18.7136C131.971 19.306 132.215 19.5499 132.877 19.5499H132.982C134.062 19.5499 135.526 19.4106 136.397 19.0272C136.258 18.7136 136.153 18.3999 136.153 18.0515V14.9499L135.386 13.9045C135.317 13.7651 135.352 13.6257 135.456 13.556L136.78 12.406L136.92 12.4757H136.989V13.4166C137.233 13.7651 137.582 14.1136 137.791 14.3575L136.989 15.0893V18.5393C136.989 18.9575 137.094 19.2015 137.373 19.4106ZM102.838 16.2393L102.629 16.5878C102.489 16.9015 102.176 17.1802 101.862 17.3545L99.7365 18.4696C100.643 18.8181 101.862 19.0272 102.838 19.2712V16.2393Z" fill="white"/>
<path d="M140.439 12.4409H140.3L139.603 14.0439V22.1636H139.742L140.439 19.55V12.4409Z" fill="white"/>
<path d="M146.608 13.5908C146.608 13.5908 146.608 13.556 146.642 13.556L147.514 14.4272L148.35 13.5908C148.42 13.5211 148.42 13.4166 148.35 13.3469L147.514 12.5105L146.642 13.3817C146.608 13.3469 146.608 13.3469 146.608 13.3469L145.771 12.5105L144.795 13.4514L145.771 14.4272L146.608 13.5908Z" fill="white"/>
<path d="M166.646 16.1349H167.343L167.691 15.2637L167.621 15.1243H166.855C166.75 15.1243 166.646 15.1243 166.506 15.1243C166.123 15.0197 165.74 14.7758 165.635 14.4621C165.809 14.2879 166.088 14.2182 166.332 14.2182C166.681 14.2182 166.994 14.3228 167.134 14.4621L167.273 14.4273L167.447 14.0788C167.378 13.8349 167.134 13.5212 166.715 13.5212C166.228 13.5212 165.774 13.9046 165.6 14.3925C165.461 14.7758 165.531 15.1243 165.705 15.3682C165.531 15.4728 165.321 15.6121 165.147 15.7864L165.008 16.4834L165.112 16.5879C165.774 16.2046 166.053 16.1349 166.646 16.1349Z" fill="white"/>
<path d="M171.28 22.9651L170.374 23.8015C170.374 23.8015 170.374 23.8014 170.339 23.7666L169.503 22.9651L168.527 23.906L169.503 24.8818L170.339 24.0105C170.374 24.0105 170.374 24.0105 170.374 23.9757L171.28 24.8818L172.117 24.0105C172.186 23.9408 172.186 23.8363 172.117 23.7666L171.28 22.9651Z" fill="white"/>
<path fill-rule="evenodd" clip-rule="evenodd" d="M174.591 21.6409H172.779C171.977 21.6409 171.42 21.1181 171.281 20.2818L170.549 21.6409H168.144C167.343 21.6409 166.785 21.1181 166.611 20.2818L165.914 21.6409H150.999C150.929 21.6409 150.871 21.6292 150.824 21.606L150.755 21.6409H148.629V20.0727L148.246 21.153L148.002 21.2575C147.549 21.153 146.19 20.8393 145.806 20.6999C145.388 20.5954 145.005 20.3515 144.935 20.0378L145.179 18.4696C145.353 18.156 145.632 17.9469 146.12 17.6333L148.629 15.9257V15.4727L149.361 14.4969H149.5V19.5499H150.755L150.824 19.5848C150.871 19.5616 150.929 19.5499 150.999 19.5499H166.576C166.611 18.7484 166.89 17.7378 167.064 17.0409H167.273V18.5393C167.273 19.2712 167.482 19.5499 168.214 19.5499H168.318H171.211C171.246 18.7484 171.524 17.7378 171.734 17.0409H171.908V18.5393C171.908 19.2712 172.117 19.5499 172.849 19.5499H172.953H174.591C174.684 19.5499 174.789 19.5499 174.905 19.5499C174.974 17.7378 176.229 16.2045 177.24 15.6121L177.588 15.5424C178.877 15.856 179.574 16.7272 179.574 18.0166C179.574 18.609 179.435 19.1318 179.191 19.5499C179.261 19.5499 180.376 19.5499 180.446 19.5499H183.443V14.9499L182.641 13.9045C182.571 13.7651 182.606 13.6257 182.711 13.556L184.035 12.406L184.174 12.5106L184.244 12.4757V13.4515C184.488 13.7651 184.837 14.1136 185.046 14.3575L184.244 15.0893V19.4106L183.547 21.6409H180.481C180.376 22.2333 180.202 22.9302 180.132 23.209C179.609 23.7318 178.947 23.906 178.25 23.906C176.682 23.906 175.671 22.9651 175.218 21.606C175.009 21.6292 174.8 21.6409 174.591 21.6409ZM177.031 21.2227C176.775 21.3156 176.508 21.3969 176.229 21.4666C176.821 21.8151 177.518 22.0242 178.215 22.0939C178.982 22.1984 179.853 22.0939 180.237 21.8848C179.505 21.4666 178.703 21.153 177.031 21.2227ZM175.079 19.5499C176.577 19.4454 179.4 18.9924 179.4 18.0863C179.4 17.5287 178.25 17.1802 177.588 17.1454C176.996 17.2848 175.253 18.2954 175.079 19.5499ZM148.629 16.2393L148.455 16.5878C148.281 16.9015 147.967 17.1802 147.688 17.3545L145.527 18.4696C146.468 18.8181 147.688 19.0272 148.629 19.2712V16.2393Z" fill="white"/>
<path d="M187.032 19.55V12.4409H186.893L186.23 14.0439V22.1636H186.37L187.032 19.55Z" fill="white"/>
<path fill-rule="evenodd" clip-rule="evenodd" d="M4.98345 32.4788L6.96981 35.8243H5.40163L3.62436 32.7228H2.12587V35.8243H0.731934V27.4258H3.7289C4.28648 27.4258 4.78597 27.5303 5.22739 27.7394C5.6688 27.9717 6.01729 28.2854 6.27284 28.6803C6.5284 29.0753 6.65618 29.5399 6.65618 30.0743C6.65618 30.5854 6.51678 31.0384 6.23799 31.4334C5.98244 31.8283 5.63395 32.1419 5.19254 32.3743C5.12284 32.3975 5.05315 32.4323 4.98345 32.4788ZM2.12587 31.4334H3.76375C4.04254 31.4334 4.28648 31.3753 4.49557 31.2591C4.70466 31.143 4.8789 30.9803 5.0183 30.7712C5.15769 30.5621 5.22739 30.3298 5.22739 30.0743C5.22739 29.6561 5.07638 29.3192 4.77436 29.0637C4.49557 28.8081 4.12385 28.6803 3.65921 28.6803H2.12587V31.4334Z" fill="white"/>
<path fill-rule="evenodd" clip-rule="evenodd" d="M15.7866 29.3773C16.1351 30.0278 16.3093 30.7712 16.3093 31.6076C16.3093 32.4672 16.1351 33.2222 15.7866 33.8727C15.4149 34.5232 14.9154 35.0344 14.2881 35.4061C13.6608 35.7778 12.9406 35.9636 12.1275 35.9636C11.2911 35.9636 10.5593 35.7778 9.93204 35.4061C9.28153 35.0344 8.77042 34.5232 8.3987 33.8727C8.05022 33.2222 7.87598 32.4672 7.87598 31.6076C7.87598 30.7712 8.05022 30.0278 8.3987 29.3773C8.77042 28.7268 9.26992 28.2157 9.89719 27.844C10.5245 27.4722 11.2563 27.2864 12.0926 27.2864C12.929 27.2864 13.6608 27.4722 14.2881 27.844C14.9154 28.2157 15.4149 28.7268 15.7866 29.3773ZM14.8805 31.6076C14.8805 31.0268 14.7644 30.5041 14.532 30.0394C14.2997 29.5748 13.9745 29.2147 13.5563 28.9591C13.1381 28.7035 12.6502 28.5758 12.0926 28.5758C11.5351 28.5758 11.0472 28.7035 10.629 28.9591C10.2108 29.2147 9.88557 29.5748 9.65325 30.0394C9.39769 30.5041 9.26992 31.0268 9.26992 31.6076C9.26992 32.2116 9.39769 32.746 9.65325 33.2106C9.88557 33.6753 10.2224 34.0354 10.6639 34.2909C11.082 34.5465 11.5699 34.6743 12.1275 34.6743C12.6618 34.6743 13.1381 34.5465 13.5563 34.2909C13.9745 34.0354 14.2997 33.6753 14.532 33.2106C14.7644 32.746 14.8805 32.2116 14.8805 31.6076Z" fill="white"/>
<path d="M22.4077 27.4258L20.3168 30.9106L18.2259 27.4258H16.6577L19.6198 32.2697V35.8243H21.0138V32.2697L24.0107 27.4258H22.4077Z" fill="white"/>
<path fill-rule="evenodd" clip-rule="evenodd" d="M29.0288 27.4258L32.4091 35.8243H30.9106L30.1091 33.7682H26.4849L25.6834 35.8243H24.2197L27.5652 27.4258H29.0288ZM29.6212 32.5137L28.297 29.0985L26.9728 32.5137H29.6212Z" fill="white"/>
<path d="M34.8832 27.4258H33.4893V35.8243H38.6817V34.5349H34.8832V27.4258Z" fill="white"/>
<path d="M48.2304 33.9076C47.9749 34.1631 47.6961 34.3606 47.3941 34.5C47.0921 34.6394 46.7668 34.7091 46.4183 34.7091C45.8608 34.7091 45.3729 34.5697 44.9547 34.2909C44.5365 34.0354 44.2113 33.6753 43.9789 33.2106C43.7466 32.746 43.6304 32.2116 43.6304 31.6076C43.6304 31.0268 43.7466 30.5041 43.9789 30.0394C44.2113 29.5748 44.5365 29.2147 44.9547 28.9591C45.3729 28.6803 45.8491 28.5409 46.3835 28.5409C46.7087 28.5409 47.034 28.6106 47.3592 28.75C47.6613 28.8662 47.94 29.0404 48.1956 29.2727C48.4279 29.5283 48.6138 29.8071 48.7532 30.1091L50.0426 29.5864C49.8335 29.1217 49.5431 28.7152 49.1714 28.3667C48.7996 28.0414 48.3815 27.7743 47.9168 27.5652C47.4289 27.3793 46.9178 27.2864 46.3835 27.2864C45.5703 27.2864 44.8501 27.4722 44.2229 27.844C43.5956 28.2157 43.1077 28.7268 42.7592 29.3773C42.3875 30.0278 42.2017 30.7712 42.2017 31.6076C42.2017 32.4672 42.3875 33.2222 42.7592 33.8727C43.1077 34.5232 43.5956 35.0344 44.2229 35.4061C44.8501 35.7778 45.5703 35.9636 46.3835 35.9636C46.9411 35.9636 47.4638 35.8591 47.9517 35.65C48.4395 35.4642 48.8577 35.1854 49.2062 34.8136C49.5779 34.4419 49.8683 34.0238 50.0774 33.5591L48.788 33.0364C48.6486 33.3616 48.4628 33.652 48.2304 33.9076Z" fill="white"/>
<path fill-rule="evenodd" clip-rule="evenodd" d="M58.7895 29.3773C59.1612 30.0278 59.3471 30.7712 59.3471 31.6076C59.3471 32.4672 59.1612 33.2222 58.7895 33.8727C58.441 34.5232 57.9531 35.0344 57.3259 35.4061C56.6986 35.7778 55.9784 35.9636 55.1653 35.9636C54.3289 35.9636 53.5855 35.7778 52.935 35.4061C52.3077 35.0344 51.8082 34.5232 51.4365 33.8727C51.0648 33.2222 50.8789 32.4672 50.8789 31.6076C50.8789 30.7712 51.0648 30.0278 51.4365 29.3773C51.8082 28.7268 52.3077 28.2157 52.935 27.844C53.5622 27.4722 54.2941 27.2864 55.1304 27.2864C55.9436 27.2864 56.6754 27.4722 57.3259 27.844C57.9531 28.2157 58.441 28.7268 58.7895 29.3773ZM57.9183 31.6076C57.9183 31.0268 57.8021 30.5041 57.5698 30.0394C57.3143 29.5748 56.9774 29.2147 56.5592 28.9591C56.141 28.7035 55.6648 28.5758 55.1304 28.5758C54.5728 28.5758 54.085 28.7035 53.6668 28.9591C53.2486 29.2147 52.9117 29.5748 52.6562 30.0394C52.4239 30.5041 52.3077 31.0268 52.3077 31.6076C52.3077 32.2116 52.4239 32.746 52.6562 33.2106C52.9117 33.6753 53.2486 34.0354 53.6668 34.2909C54.1082 34.5465 54.6077 34.6743 55.1653 34.6743C55.6996 34.6743 56.1759 34.5465 56.5941 34.2909C57.0122 34.0354 57.3375 33.6753 57.5698 33.2106C57.8021 32.746 57.9183 32.2116 57.9183 31.6076Z" fill="white"/>
<path d="M64.9575 31.294L62.309 27.4258H60.8105V35.8243H62.2045V29.6561L64.9227 33.6637L67.6757 29.6212V35.8243H69.0696V27.4258H67.5712L64.9575 31.294Z" fill="white"/>
<path d="M75.1683 31.294L72.5198 27.4258H71.0562V35.8243H72.4501V29.6561L75.1683 33.6637L77.8865 29.6212V35.8243H79.2804V27.4258H77.7819L75.1683 31.294Z" fill="white"/>
<path d="M82.6605 27.4258V35.8243H81.2666V27.4258H82.6605Z" fill="white"/>
<path d="M88.062 31.0849L87.0514 30.8409C86.7029 30.748 86.4241 30.6086 86.2151 30.4227C86.006 30.2601 85.9014 30.0278 85.9014 29.7258C85.9014 29.3308 86.0292 29.0288 86.2848 28.8197C86.5403 28.5874 86.9004 28.4712 87.3651 28.4712C87.8065 28.4712 88.1782 28.5758 88.4802 28.7849C88.759 28.994 88.9681 29.2611 89.1075 29.5864L90.4317 29.1682C90.3156 28.7965 90.1181 28.4712 89.8393 28.1924C89.5837 27.9136 89.2585 27.6929 88.8635 27.5303C88.4454 27.3677 87.9691 27.2864 87.4348 27.2864C86.4822 27.2864 85.7504 27.4955 85.2393 27.9136C84.7282 28.3551 84.4726 28.9707 84.4726 29.7606C84.4726 30.1788 84.5656 30.5389 84.7514 30.8409C84.9373 31.1429 85.1812 31.3985 85.4832 31.6076C85.8085 31.7934 86.1686 31.9445 86.5635 32.0606L87.5741 32.3046C88.0156 32.4207 88.364 32.5833 88.6196 32.7924C88.8752 33.0015 89.0029 33.2571 89.0029 33.5591C89.0029 33.9308 88.8519 34.2212 88.5499 34.4303C88.2479 34.6394 87.8297 34.744 87.2954 34.744C86.8539 34.744 86.4822 34.6278 86.1802 34.3955C85.8782 34.1864 85.6691 33.9308 85.5529 33.6288L84.1938 34.047C84.2635 34.3025 84.3913 34.5349 84.5772 34.744C84.763 34.9763 84.9954 35.1854 85.2741 35.3712C85.5297 35.5571 85.8433 35.7081 86.2151 35.8243C86.5868 35.9172 86.9933 35.9636 87.4348 35.9636C88.0853 35.9636 88.6312 35.8591 89.0726 35.65C89.5373 35.4409 89.8858 35.1505 90.1181 34.7788C90.3272 34.4071 90.4317 33.9889 90.4317 33.5243C90.4317 32.9667 90.2342 32.4672 89.8393 32.0258C89.4211 31.5844 88.8287 31.2707 88.062 31.0849Z" fill="white"/>
<path d="M95.3804 31.0849L94.3698 30.8409C94.0213 30.748 93.7425 30.6086 93.5334 30.4227C93.3243 30.2601 93.2198 30.0278 93.2198 29.7258C93.2198 29.3308 93.3476 29.0288 93.6031 28.8197C93.8587 28.5874 94.2188 28.4712 94.6834 28.4712C95.1248 28.4712 95.4965 28.5758 95.7986 28.7849C96.0774 28.994 96.2865 29.2611 96.4258 29.5864L97.7501 29.1682C97.6339 28.7965 97.4364 28.4712 97.1577 28.1924C96.9021 27.9136 96.5769 27.6929 96.1819 27.5303C95.7637 27.3677 95.2875 27.2864 94.7531 27.2864C93.8006 27.2864 93.0688 27.4955 92.5577 27.9136C92.0466 28.3551 91.791 28.9707 91.791 29.7606C91.791 30.1788 91.8839 30.5389 92.0698 30.8409C92.2556 31.1429 92.4996 31.3985 92.8016 31.6076C93.1268 31.7934 93.487 31.9445 93.8819 32.0606L94.8925 32.3046C95.3339 32.4207 95.6824 32.5833 95.938 32.7924C96.1935 33.0015 96.3213 33.2571 96.3213 33.5591C96.3213 33.9308 96.1703 34.2212 95.8683 34.4303C95.5662 34.6394 95.1481 34.744 94.6137 34.744C94.1723 34.744 93.8006 34.6278 93.4986 34.3955C93.1965 34.1864 92.9875 33.9308 92.8713 33.6288L91.5122 34.047C91.5819 34.3025 91.7097 34.5349 91.8955 34.744C92.0814 34.9763 92.3137 35.1854 92.5925 35.3712C92.8481 35.5571 93.1617 35.7081 93.5334 35.8243C93.9051 35.9172 94.3117 35.9636 94.7531 35.9636C95.4036 35.9636 95.9496 35.8591 96.391 35.65C96.8556 35.4409 97.2041 35.1505 97.4365 34.7788C97.6688 34.4071 97.7849 33.9889 97.7849 33.5243C97.7849 32.9667 97.5758 32.4672 97.1577 32.0258C96.7395 31.5844 96.1471 31.2707 95.3804 31.0849Z" fill="white"/>
<path d="M100.712 27.4258V35.8243H99.3184V27.4258H100.712Z" fill="white"/>
<path fill-rule="evenodd" clip-rule="evenodd" d="M110.086 29.3773C110.435 30.0278 110.609 30.7712 110.609 31.6076C110.609 32.4672 110.435 33.2222 110.086 33.8727C109.715 34.5232 109.215 35.0344 108.588 35.4061C107.961 35.7778 107.24 35.9636 106.427 35.9636C105.591 35.9636 104.847 35.7778 104.197 35.4061C103.57 35.0344 103.07 34.5232 102.699 33.8727C102.35 33.2222 102.176 32.4672 102.176 31.6076C102.176 30.7712 102.35 30.0278 102.699 29.3773C103.07 28.7268 103.57 28.2157 104.197 27.844C104.824 27.4722 105.556 27.2864 106.392 27.2864C107.229 27.2864 107.961 27.4722 108.588 27.844C109.215 28.2157 109.715 28.7268 110.086 29.3773ZM109.18 31.6076C109.18 31.0268 109.064 30.5041 108.832 30.0394C108.6 29.5748 108.274 29.2147 107.856 28.9591C107.415 28.7035 106.927 28.5758 106.392 28.5758C105.835 28.5758 105.347 28.7035 104.929 28.9591C104.511 29.2147 104.185 29.5748 103.953 30.0394C103.697 30.5041 103.57 31.0268 103.57 31.6076C103.57 32.2116 103.697 32.746 103.953 33.2106C104.185 33.6753 104.522 34.0354 104.964 34.2909C105.382 34.5465 105.87 34.6743 106.427 34.6743C106.962 34.6743 107.438 34.5465 107.856 34.2909C108.274 34.0354 108.6 33.6753 108.832 33.2106C109.064 32.746 109.18 32.2116 109.18 31.6076Z" fill="white"/>
<path d="M117.997 33.4894L113.536 27.4258H112.073V35.8243H113.467V29.6909L117.997 35.8243H119.391V27.4258H117.997V33.4894Z" fill="white"/>
<path d="M124.27 35.8243H125.663V32.3046H128.939V31.05H125.663V28.6803H129.497V27.4258H124.27V35.8243Z" fill="white"/>
<path fill-rule="evenodd" clip-rule="evenodd" d="M138.244 29.3773C138.593 30.0278 138.767 30.7712 138.767 31.6076C138.767 32.4672 138.593 33.2222 138.244 33.8727C137.896 34.5232 137.408 35.0344 136.78 35.4061C136.153 35.7778 135.421 35.9636 134.585 35.9636C133.749 35.9636 133.017 35.7778 132.39 35.4061C131.739 35.0344 131.24 34.5232 130.891 33.8727C130.519 33.2222 130.333 32.4672 130.333 31.6076C130.333 30.7712 130.519 30.0278 130.891 29.3773C131.24 28.7268 131.727 28.2157 132.355 27.844C133.005 27.4722 133.737 27.2864 134.55 27.2864C135.387 27.2864 136.118 27.4722 136.746 27.844C137.396 28.2157 137.896 28.7268 138.244 29.3773ZM137.373 31.6076C137.373 31.0268 137.245 30.5041 136.99 30.0394C136.757 29.5748 136.432 29.2147 136.014 28.9591C135.596 28.7035 135.108 28.5758 134.55 28.5758C134.016 28.5758 133.54 28.7035 133.121 28.9591C132.703 29.2147 132.366 29.5748 132.111 30.0394C131.878 30.5041 131.762 31.0268 131.762 31.6076C131.762 32.2116 131.878 32.746 132.111 33.2106C132.366 33.6753 132.703 34.0354 133.121 34.2909C133.54 34.5465 134.027 34.6743 134.585 34.6743C135.143 34.6743 135.63 34.5465 136.049 34.2909C136.444 34.0354 136.769 33.6753 137.024 33.2106C137.257 32.746 137.373 32.2116 137.373 31.6076Z" fill="white"/>
<path fill-rule="evenodd" clip-rule="evenodd" d="M144.482 32.4788L146.468 35.8243H144.9L143.123 32.7228H141.659V35.8243H140.265V27.4258H143.227C143.808 27.4258 144.308 27.5303 144.726 27.7394C145.167 27.9717 145.516 28.2854 145.771 28.6803C146.027 29.0753 146.155 29.5399 146.155 30.0743C146.155 30.5854 146.027 31.0384 145.771 31.4334C145.492 31.8283 145.132 32.1419 144.691 32.3743C144.621 32.3975 144.552 32.4323 144.482 32.4788ZM141.659 31.4334H143.262C143.541 31.4334 143.785 31.3753 143.994 31.2591C144.203 31.143 144.377 30.9803 144.517 30.7712C144.656 30.5621 144.726 30.3298 144.726 30.0743C144.726 29.6561 144.575 29.3192 144.273 29.0637C143.994 28.8081 143.622 28.6803 143.158 28.6803H141.659V31.4334Z" fill="white"/>
<path fill-rule="evenodd" clip-rule="evenodd" d="M154.728 27.4258L158.073 35.8243H156.609L155.808 33.7682H152.184L151.382 35.8243H149.918L153.264 27.4258H154.728ZM155.32 32.5137L153.996 29.0985L152.637 32.5137H155.32Z" fill="white"/>
<path d="M160.582 27.4258H159.188V35.8243H164.38V34.5349H160.582V27.4258Z" fill="white"/>
<path d="M170.723 32.7576C170.723 33.1525 170.641 33.4894 170.479 33.7682C170.316 34.0702 170.095 34.3026 169.817 34.4652C169.515 34.6278 169.166 34.7091 168.771 34.7091C168.376 34.7091 168.028 34.6278 167.726 34.4652C167.447 34.3026 167.226 34.0702 167.064 33.7682C166.901 33.4894 166.82 33.1525 166.82 32.7576V27.4258H165.426V32.7576C165.426 33.4081 165.565 33.9773 165.844 34.4652C166.1 34.9531 166.483 35.3248 166.994 35.5803C167.505 35.8591 168.086 35.9985 168.736 35.9985C169.433 35.9985 170.037 35.8591 170.549 35.5803C171.036 35.3248 171.42 34.9531 171.699 34.4652C171.977 33.9773 172.117 33.4081 172.117 32.7576V27.4258H170.723V32.7576Z" fill="white"/>
<path d="M175.392 27.4258H173.999V35.8243H179.191V34.5349H175.392V27.4258Z" fill="white"/>
<path fill-rule="evenodd" clip-rule="evenodd" d="M184.279 27.4258L187.659 35.8243H186.161L185.359 33.7682H181.735L180.933 35.8243H179.47L182.815 27.4258H184.279ZM184.871 32.5137L183.547 29.0985L182.223 32.5137H184.871Z" fill="white"/>
</g>
<defs>
<clipPath id="clip0_18041_1529">
<rect width="238.88" height="46" fill="white"/>
</clipPath>
</defs>
</svg>
