<svg width="24" height="24" viewBox="0 0 24 24" fill="none" xmlns="http://www.w3.org/2000/svg">
<path fill-rule="evenodd" clip-rule="evenodd" d="M22.5 16.5H24V12.75L15.75 7.59375V3L13.875 0H10.125L8.25 3V7.59375L0 12.75V16.5H1.5L8.30982 15.4785L8.73529 18.8824L6.75 19.875V24H17.25V19.875L15.2647 18.8824L15.6902 15.4785L22.5 16.5ZM15 21.2656L12.8346 20.1829L13.7436 12.9114L21.75 14.1123V13.9971L13.5 8.84081V3.64529L12.6279 2.25H11.3721L10.5 3.64529V8.84081L2.25 13.9971V14.1123L10.2564 12.9114L11.1654 20.1829L9 21.2656V21.75H15V21.2656Z" fill="#9F8332"/>
</svg>
