<svg width="30" height="30" viewBox="0 0 30 30" fill="none" xmlns="http://www.w3.org/2000/svg">
<path fill-rule="evenodd" clip-rule="evenodd" d="M3.75 12.1875C3.75 7.5276 7.5276 3.75 12.1875 3.75C16.8474 3.75 20.625 7.5276 20.625 12.1875C20.625 16.8474 16.8474 20.625 12.1875 20.625C7.5276 20.625 3.75 16.8474 3.75 12.1875ZM12.1875 1.875C6.49206 1.875 1.875 6.49206 1.875 12.1875C1.875 17.8829 6.49206 22.5 12.1875 22.5C14.4602 22.5 16.5612 21.7648 18.2656 20.5193L25.3125 27.1875L26.6383 25.8617L19.6781 19.2755C21.4272 17.4276 22.5 14.9328 22.5 12.1875C22.5 6.49206 17.8829 1.875 12.1875 1.875Z" fill="white"/>
</svg>
