<svg width="614" height="684" viewBox="0 0 614 684" fill="none" xmlns="http://www.w3.org/2000/svg">
<path d="M353.681 486.717C353.802 483.713 353.948 480.727 354.102 477.821C364.762 488.778 373.963 495.643 373.963 495.643C377.839 498.627 382.905 500.424 388.46 500.387C400.95 500.316 411.212 491.068 411.382 479.718C411.552 468.369 401.576 459.227 389.086 459.298C386.105 459.317 383.247 459.876 380.634 460.84C370.947 465.112 370.452 471.31 371.558 475.479C371.558 475.479 355.434 459.058 355.872 430.468C355.912 428.66 355.784 426.747 355.583 424.78C354.89 409.42 353.247 393.83 350.261 378.358C406.086 305.628 446.27 293.314 446.27 293.314C487.231 302.027 533.568 394.964 533.568 394.964C533.568 394.964 530.114 456.753 490.225 485.84C490.54 482.304 489.561 477.384 483.399 473.486C475.547 468.533 465.258 470.899 458.8 476.683C455.042 480.368 452.694 485.239 452.612 490.617C452.442 501.966 462.44 511.106 474.908 511.037C479.176 511.01 483.154 509.905 486.576 508.018L486.58 508.058C486.58 508.058 486.814 507.911 486.917 507.819C487.813 507.297 488.682 506.736 489.5 506.12C511.049 491.678 553.262 453.725 542.041 403.542C543.569 303.774 457.033 249.916 457.033 249.916L457.207 237.726C457.269 234.359 454.302 231.65 450.599 231.681C446.894 231.692 443.854 234.442 443.814 237.807L443.617 249.999C373.7 281.139 345.795 358.59 345.799 358.63C320.826 256.065 319.865 134.872 423.083 134.295C426.869 133.969 430.779 133.752 434.895 133.781C541.726 134.72 597.742 249.329 565.194 364.182C532.691 479.03 508.787 562.669 501.295 598.068C494.623 629.551 483.035 688.935 422.568 688.349C412.513 689.461 400.895 688.787 387.42 685.639C304.661 666.434 333.902 584.154 333.902 584.154C333.902 584.154 347.981 542.466 353.677 486.677" fill="white" fill-opacity="0.15"/>
<path d="M252.761 352.918C252.388 349.933 251.994 346.97 251.56 344.053C241.953 356.164 233.414 363.991 233.414 363.991C229.823 367.382 224.952 369.711 219.45 370.275C207.066 371.544 196.082 363.415 194.923 352.099C193.763 340.783 202.868 330.574 215.252 329.305C218.215 329.002 221.078 329.264 223.757 329.935C233.744 333.169 234.755 339.297 234.047 343.586C234.047 343.586 248.619 325.454 245.697 296.94C245.512 295.129 245.452 293.222 245.472 291.225C244.839 275.824 245.095 260.085 246.739 244.286C185.077 177.594 144.172 169.61 144.172 169.61C104.3 182.683 66.4705 280.486 66.4705 280.486C66.4705 280.486 75.2781 341.838 117.32 366.632C116.714 363.136 117.234 358.106 123.026 353.563C130.379 347.792 140.772 349.051 147.708 354.14C151.757 357.406 154.503 362.02 155.051 367.372C156.211 378.688 147.106 388.897 134.721 390.166C130.489 390.6 126.457 389.902 122.903 388.395L122.908 388.435C122.908 388.435 122.648 388.318 122.528 388.248C121.585 387.831 120.682 387.368 119.818 386.839C97.1918 374.7 52.042 341.32 58.8462 289.988C48.65 190.484 129.744 127.426 129.744 127.426L128.496 115.255C128.152 111.897 130.858 108.864 134.51 108.49C138.163 108.115 141.428 110.537 141.772 113.895L143.019 126.066C215.032 149.68 249.418 224.083 249.445 224.121C265.278 119.009 255.698 -2.15356 153.326 8.31596C149.552 8.39412 145.658 8.60808 141.564 9.06874C35.7391 21.4345 -9.82786 141.913 32.4303 253.166C74.6439 364.424 105.585 445.411 116.104 479.974C125.442 510.69 142.084 568.771 202 561.747C212.087 561.783 223.526 559.85 236.607 555.28C316.97 527.261 280.845 448.183 280.845 448.183C280.845 448.183 263.25 408.051 252.761 352.918Z" fill="white" fill-opacity="0.15"/>
</svg>
