<svg width="24" height="24" viewBox="0 0 24 24" fill="none" xmlns="http://www.w3.org/2000/svg">
<path fill-rule="evenodd" clip-rule="evenodd" d="M9.39929 13.5755C9.4788 13.6282 9.56 13.6786 9.64279 13.7265C10.3362 14.1276 11.1413 14.3571 11.9999 14.3571C12.8586 14.3571 13.6637 14.1276 14.3571 13.7265C14.4399 13.6786 14.5211 13.6282 14.6006 13.5755C15.8743 12.7315 16.7142 11.2853 16.7142 9.64286C16.7142 7.03923 14.6036 4.92857 11.9999 4.92857C9.3963 4.92857 7.28565 7.03923 7.28565 9.64286C7.28565 11.2853 8.12556 12.7315 9.39929 13.5755ZM11.9999 12C13.3017 12 14.3571 10.9447 14.3571 9.64286C14.3571 8.34104 13.3017 7.28571 11.9999 7.28571C10.6981 7.28571 9.64279 8.34104 9.64279 9.64286C9.64279 10.9447 10.6981 12 11.9999 12Z" fill="#916139"/>
<path fill-rule="evenodd" clip-rule="evenodd" d="M1 1H23V23H1V1ZM3.35714 3.35714H20.6429V20.6429H19.0714C19.0714 18.2993 17.3612 16.3551 15.1208 15.9901C14.8722 15.9496 14.6171 15.9286 14.3571 15.9286H9.64279C9.38276 15.9286 9.12765 15.9496 8.87907 15.9901C6.63863 16.3551 4.9285 18.2993 4.9285 20.6429H3.35714V3.35714ZM7.28565 20.6429H16.7142C16.7142 19.341 15.6589 18.2857 14.3571 18.2857H9.64279C8.34097 18.2857 7.28565 19.341 7.28565 20.6429Z" fill="#916139"/>
</svg>
