<svg width="87" height="12" viewBox="0 0 87 12" fill="none" xmlns="http://www.w3.org/2000/svg">
<path fill-rule="evenodd" clip-rule="evenodd" d="M7.26561 0.50081L8.66808 3.23931C8.77141 3.43772 8.96861 3.5755 9.19606 3.60612L12.3463 4.05192C12.5302 4.07703 12.6972 4.17133 12.81 4.31524C12.9215 4.45731 12.9694 4.63734 12.9423 4.81432C12.9202 4.96129 12.849 5.09723 12.74 5.20133L10.4574 7.35135C10.2904 7.50138 10.2148 7.72367 10.2552 7.94106L10.8172 10.9637C10.877 11.3287 10.6281 11.6728 10.2552 11.742C10.1014 11.7659 9.94392 11.7408 9.80531 11.6722L6.99532 10.2497C6.78678 10.1474 6.54043 10.1474 6.33189 10.2497L3.5219 11.6722C3.17664 11.8504 2.74884 11.7292 2.55667 11.3985C2.48548 11.2668 2.46028 11.1168 2.48359 10.9704L3.04559 7.94719C3.08591 7.73041 3.00967 7.50689 2.84334 7.35686L0.560702 5.20807C0.289154 4.95333 0.280963 4.53385 0.542431 4.26993C0.548101 4.26441 0.554402 4.25829 0.560702 4.25217C0.669069 4.145 0.811459 4.07703 0.965189 4.05927L4.1154 3.61286C4.34221 3.58163 4.53942 3.44507 4.64337 3.24544L5.99544 0.50081C6.11578 0.265661 6.36528 0.119305 6.6362 0.125429H6.72062C6.95563 0.152986 7.16039 0.294442 7.26561 0.50081Z" fill="#FFAC32"/>
<path fill-rule="evenodd" clip-rule="evenodd" d="M25.6797 0.50081L27.0821 3.23931C27.1855 3.43772 27.3827 3.5755 27.6101 3.60612L30.7603 4.05192C30.9443 4.07703 31.1113 4.17133 31.224 4.31524C31.3356 4.45731 31.3834 4.63734 31.3563 4.81432C31.3343 4.96129 31.2631 5.09723 31.1541 5.20133L28.8715 7.35135C28.7045 7.50138 28.6289 7.72367 28.6692 7.94106L29.2312 10.9637C29.2911 11.3287 29.0422 11.6728 28.6692 11.742C28.5155 11.7659 28.358 11.7408 28.2194 11.6722L25.4094 10.2497C25.2008 10.1474 24.9545 10.1474 24.7459 10.2497L21.936 11.6722C21.5907 11.8504 21.1629 11.7292 20.9707 11.3985C20.8995 11.2668 20.8743 11.1168 20.8977 10.9704L21.4596 7.94719C21.5 7.73041 21.4237 7.50689 21.2574 7.35686L18.9748 5.20807C18.7032 4.95333 18.695 4.53385 18.9565 4.26993C18.9622 4.26441 18.9685 4.25829 18.9748 4.25217C19.0831 4.145 19.2255 4.07703 19.3793 4.05927L22.5295 3.61286C22.7563 3.58163 22.9535 3.44507 23.0574 3.24544L24.4095 0.50081C24.5298 0.265661 24.7793 0.119305 25.0503 0.125429H25.1347C25.3697 0.152986 25.5745 0.294442 25.6797 0.50081Z" fill="#FFAC32"/>
<path fill-rule="evenodd" clip-rule="evenodd" d="M44.0898 0.50081L45.4923 3.23931C45.5956 3.43772 45.7928 3.5755 46.0203 3.60612L49.1705 4.05192C49.3545 4.07703 49.5214 4.17133 49.6342 4.31524C49.7457 4.45731 49.7936 4.63734 49.7665 4.81432C49.7445 4.96129 49.6733 5.09723 49.5643 5.20133L47.2816 7.35135C47.1147 7.50138 47.0391 7.72367 47.0794 7.94106L47.6414 10.9637C47.7012 11.3287 47.4524 11.6728 47.0794 11.742C46.9256 11.7659 46.7681 11.7408 46.6295 11.6722L43.8195 10.2497C43.611 10.1474 43.3646 10.1474 43.1561 10.2497L40.3461 11.6722C40.0009 11.8504 39.5731 11.7292 39.3809 11.3985C39.3097 11.2668 39.2845 11.1168 39.3078 10.9704L39.8698 7.94719C39.9101 7.73041 39.8339 7.50689 39.6676 7.35686L37.3849 5.20807C37.1134 4.95333 37.1052 4.53385 37.3666 4.26993C37.3723 4.26441 37.3786 4.25829 37.3849 4.25217C37.4933 4.145 37.6357 4.07703 37.7894 4.05927L40.9396 3.61286C41.1664 3.58163 41.3636 3.44507 41.4676 3.24544L42.8197 0.50081C42.94 0.265661 43.1895 0.119305 43.4604 0.125429H43.5448C43.7798 0.152986 43.9846 0.294442 44.0898 0.50081Z" fill="#FFAC32"/>
<path fill-rule="evenodd" clip-rule="evenodd" d="M62.5039 0.50081L63.9064 3.23931C64.0097 3.43772 64.2069 3.5755 64.4343 3.60612L67.5845 4.05192C67.7685 4.07703 67.9355 4.17133 68.0483 4.31524C68.1598 4.45731 68.2077 4.63734 68.1806 4.81432C68.1585 4.96129 68.0873 5.09723 67.9783 5.20133L65.6957 7.35135C65.5287 7.50138 65.4531 7.72367 65.4934 7.94106L66.0554 10.9637C66.1153 11.3287 65.8664 11.6728 65.4934 11.742C65.3397 11.7659 65.1822 11.7408 65.0436 11.6722L62.2336 10.2497C62.0251 10.1474 61.7787 10.1474 61.5702 10.2497L58.7602 11.6722C58.4149 11.8504 57.9871 11.7292 57.795 11.3985C57.7238 11.2668 57.6986 11.1168 57.7219 10.9704L58.2839 7.94719C58.3242 7.73041 58.248 7.50689 58.0816 7.35686L55.799 5.20807C55.5274 4.95333 55.5192 4.53385 55.7807 4.26993C55.7864 4.26441 55.7927 4.25829 55.799 4.25217C55.9074 4.145 56.0497 4.07703 56.2035 4.05927L59.3537 3.61286C59.5805 3.58163 59.7777 3.44507 59.8817 3.24544L61.2337 0.50081C61.3541 0.265661 61.6036 0.119305 61.8745 0.125429H61.9589C62.1939 0.152986 62.3987 0.294442 62.5039 0.50081Z" fill="#FFAC32"/>
<path fill-rule="evenodd" clip-rule="evenodd" d="M80.916 0.50081L82.3185 3.23931C82.4218 3.43772 82.619 3.5755 82.8464 3.60612L85.9967 4.05192C86.1806 4.07703 86.3476 4.17133 86.4604 4.31524C86.5719 4.45731 86.6198 4.63734 86.5927 4.81432C86.5706 4.96129 86.4994 5.09723 86.3904 5.20133L84.1078 7.35135C83.9408 7.50138 83.8652 7.72367 83.9055 7.94106L84.4675 10.9637C84.5274 11.3287 84.2785 11.6728 83.9055 11.742C83.7518 11.7659 83.5943 11.7408 83.4557 11.6722L80.6457 10.2497C80.4372 10.1474 80.1908 10.1474 79.9823 10.2497L77.1723 11.6722C76.827 11.8504 76.3992 11.7292 76.2071 11.3985C76.1359 11.2668 76.1107 11.1168 76.134 10.9704L76.696 7.94719C76.7363 7.73041 76.6601 7.50689 76.4937 7.35686L74.2111 5.20807C73.9395 4.95333 73.9314 4.53385 74.1928 4.26993C74.1985 4.26441 74.2048 4.25829 74.2111 4.25217C74.3195 4.145 74.4618 4.07703 74.6156 4.05927L77.7658 3.61286C77.9926 3.58163 78.1898 3.44507 78.2938 3.24544L79.6458 0.50081C79.7662 0.265661 80.0157 0.119305 80.2866 0.125429H80.371C80.606 0.152986 80.8108 0.294442 80.916 0.50081Z" fill="#040415" fill-opacity="0.2"/>
</svg>
