<svg width="144" height="49" viewBox="0 0 144 49" fill="none" xmlns="http://www.w3.org/2000/svg">
<rect x="0.671968" y="0.671724" width="142.729" height="46.7768" rx="6.59673" fill="black"/>
<rect x="0.671968" y="0.671724" width="142.729" height="46.7768" rx="6.59673" stroke="#A6A6A6" stroke-width="1.1994"/>
<path d="M29.7034 24.9754C29.718 23.8721 30.0182 22.7903 30.5761 21.8306C31.1339 20.871 31.9314 20.0647 32.8942 19.4868C32.2826 18.634 31.4756 17.9321 30.5376 17.437C29.5995 16.9419 28.5561 16.6671 27.4902 16.6346C25.2165 16.4016 23.0123 17.9629 21.8536 17.9629C20.6726 17.9629 18.8887 16.6577 16.9677 16.6963C15.7252 16.7355 14.5143 17.0882 13.4529 17.7202C12.3915 18.3521 11.5159 19.2417 10.9114 20.3023C8.29287 24.7285 10.2461 31.2337 12.7545 34.8116C14.0095 36.5636 15.4763 38.5206 17.3955 38.4512C19.2736 38.3751 19.975 37.282 22.242 37.282C24.4879 37.282 25.146 38.4512 27.1042 38.4071C29.1194 38.3751 30.3891 36.6473 31.6001 34.8787C32.5019 33.6304 33.1957 32.2507 33.6561 30.7907C32.4853 30.3073 31.4861 29.498 30.7832 28.4639C30.0803 27.4298 29.7048 26.2165 29.7034 24.9754Z" fill="white"/>
<path d="M26.0052 14.2816C27.104 12.9938 27.6453 11.3385 27.5142 9.6673C25.8355 9.83943 24.2849 10.6227 23.1712 11.8611C22.6267 12.4661 22.2097 13.17 21.944 13.9324C21.6782 14.6948 21.5691 15.5009 21.6226 16.3046C22.4623 16.313 23.293 16.1353 24.0521 15.7849C24.8112 15.4345 25.479 14.9205 26.0052 14.2816Z" fill="white"/>
<path d="M53.6422 11.8776H55.9533C57.7514 11.8776 58.5398 12.9623 58.5398 14.6977C58.5398 16.4582 57.7305 17.5721 55.9533 17.5721H53.6422V11.8776ZM55.1357 13.0499V16.3998H55.703C56.6292 16.3998 57.0088 15.8491 57.0088 14.7353C57.0088 13.6214 56.625 13.0499 55.703 13.0499H55.1357ZM61.4726 13.0207C62.8033 13.0207 63.6252 13.8675 63.6252 15.1524V15.4862C63.6252 16.8795 62.8033 17.6555 61.4726 17.6555C60.1293 17.6555 59.3074 16.8837 59.3074 15.4903V15.1608C59.3074 13.8884 60.1334 13.0207 61.4726 13.0207ZM61.4684 14.0886C60.9511 14.0886 60.7759 14.6059 60.7759 15.1441V15.5321C60.7759 16.0327 60.9344 16.5875 61.4684 16.5875C62.0024 16.5875 62.1567 16.041 62.1567 15.5321V15.1441C62.1567 14.6018 61.9857 14.0886 61.4684 14.0886ZM70.9049 13.1041L69.7702 17.5721H68.2391L67.5216 14.631H67.4757L66.7665 17.5721H65.223L64.0799 13.1041H65.565L66.0782 16.1912H66.1366L66.8249 13.1041H68.1807L68.8816 16.1912H68.94L69.4615 13.1041H70.9049ZM71.6224 17.5721V13.1041H73.0241V13.8675H73.095C73.2035 13.5255 73.579 13.0374 74.4008 13.0374C75.2936 13.0374 75.8651 13.5672 75.8651 14.6393V17.5721H74.4217V15.0148C74.4217 14.4015 74.0837 14.2305 73.775 14.2305C73.3746 14.2305 73.07 14.5392 73.07 15.1065V17.5721H71.6224ZM77.0081 17.5721V11.5397H78.4557V17.5721H77.0081ZM81.5971 13.0207C82.9279 13.0207 83.7497 13.8675 83.7497 15.1524V15.4862C83.7497 16.8795 82.9279 17.6555 81.5971 17.6555C80.2538 17.6555 79.4319 16.8837 79.4319 15.4903V15.1608C79.4319 13.8884 80.2579 13.0207 81.5971 13.0207ZM81.5929 14.0886C81.0756 14.0886 80.9004 14.6059 80.9004 15.1441V15.5321C80.9004 16.0327 81.0589 16.5875 81.5929 16.5875C82.1269 16.5875 82.2812 16.041 82.2812 15.5321V15.1441C82.2812 14.6018 82.1102 14.0886 81.5929 14.0886ZM85.9607 17.6346C85.0888 17.6346 84.4839 17.134 84.4839 16.2788C84.4839 15.457 85.0513 14.9272 86.0942 14.9272H87.1038V14.5684C87.1038 14.2472 86.8868 14.0761 86.5531 14.0761C86.2068 14.0761 86.0191 14.2555 85.9983 14.5016H84.6424C84.6716 13.7924 85.1222 13.0374 86.574 13.0374C87.6544 13.0374 88.5305 13.4462 88.5305 14.6185V17.5721H87.1747V17.0297H87.1038C86.9703 17.3301 86.6199 17.6346 85.9607 17.6346ZM86.4697 16.6459C86.8034 16.6459 87.1038 16.429 87.1038 16.1119V15.6864H86.4989C86.1192 15.6864 85.9023 15.8783 85.9023 16.1578C85.9023 16.4791 86.1776 16.6459 86.4697 16.6459ZM91.0711 13.0582C91.6969 13.0582 92.1683 13.3461 92.331 13.8008H92.3977V11.5397H93.8495V17.5721H92.4061V16.8545H92.3351C92.185 17.3092 91.6969 17.6179 91.0628 17.6179C90.0782 17.6179 89.44 16.8795 89.44 15.5696V15.0982C89.44 13.7883 90.0824 13.0582 91.0711 13.0582ZM91.6593 14.1721C91.2296 14.1721 90.9376 14.5142 90.9376 15.1775V15.4987C90.9376 16.1662 91.2338 16.5124 91.6635 16.5124C92.0932 16.5124 92.3977 16.1703 92.3977 15.5196V15.1358C92.3977 14.51 92.0807 14.1721 91.6593 14.1721ZM98.8431 13.0207C100.174 13.0207 100.996 13.8675 100.996 15.1524V15.4862C100.996 16.8795 100.174 17.6555 98.8431 17.6555C97.4998 17.6555 96.6779 16.8837 96.6779 15.4903V15.1608C96.6779 13.8884 97.5039 13.0207 98.8431 13.0207ZM98.8389 14.0886C98.3216 14.0886 98.1464 14.6059 98.1464 15.1441V15.5321C98.1464 16.0327 98.3049 16.5875 98.8389 16.5875C99.3729 16.5875 99.5272 16.041 99.5272 15.5321V15.1441C99.5272 14.6018 99.3562 14.0886 98.8389 14.0886ZM101.934 17.5721V13.1041H103.336V13.8675H103.407C103.515 13.5255 103.891 13.0374 104.713 13.0374C105.605 13.0374 106.177 13.5672 106.177 14.6393V17.5721H104.734V15.0148C104.734 14.4015 104.396 14.2305 104.087 14.2305C103.686 14.2305 103.382 14.5392 103.382 15.1065V17.5721H101.934ZM109.573 13.1834V12.082H110.966V13.1834H111.942V14.2555H110.966V16.016C110.966 16.3831 111.166 16.5166 111.546 16.5166C111.717 16.5166 111.871 16.5083 111.959 16.4999V17.5262C111.851 17.547 111.542 17.5804 111.2 17.5804C110.04 17.5804 109.535 17.2383 109.535 16.2955V14.2555H108.855V13.1834H109.573ZM112.877 17.5721V11.5397H114.32V13.8675H114.391C114.491 13.5421 114.867 13.0374 115.676 13.0374C116.548 13.0374 117.14 13.5713 117.14 14.6393V17.5721H115.693V15.0148C115.693 14.4015 115.355 14.2305 115.034 14.2305C114.637 14.2305 114.32 14.535 114.32 15.1065V17.5721H112.877ZM120.207 17.6555C118.922 17.6555 118.037 16.9505 118.037 15.5196V15.1441C118.037 13.7132 118.993 13.0207 120.144 13.0207C121.383 13.0207 122.23 13.8217 122.23 15.1441V15.628H119.447V15.8283C119.447 16.3122 119.781 16.6 120.198 16.6C120.578 16.6 120.874 16.4165 120.895 16.137H122.209C122.184 16.7669 121.621 17.6555 120.207 17.6555ZM119.447 14.8396H120.849V14.8229C120.849 14.3515 120.578 14.0386 120.157 14.0386C119.735 14.0386 119.447 14.3515 119.447 14.8229V14.8396Z" fill="white"/>
<path d="M55.0981 34.5721H53.1708L57.0922 23.1832H59.2115L63.1246 34.5721H61.1221L60.1126 31.4182H56.116L55.0981 34.5721ZM58.1602 25.1522H58.0851L56.5415 29.9664H59.687L58.1602 25.1522ZM68.4437 34.6972C67.3007 34.6972 66.433 34.1549 65.9657 33.3456H65.899V37.5006H64.0467V25.753H65.8489V27.0462H65.9157C66.3996 26.2035 67.3007 25.6362 68.4855 25.6362C70.4629 25.6362 71.8729 27.1297 71.8729 29.7662V30.5505C71.8729 33.1703 70.4796 34.6972 68.4437 34.6972ZM68.0182 33.1703C69.1947 33.1703 69.9956 32.2275 69.9956 30.4504V29.8329C69.9956 28.1225 69.2447 27.1463 67.9849 27.1463C66.6916 27.1463 65.8823 28.1976 65.8823 29.8246V30.4504C65.8823 32.1191 66.7 33.1703 68.0182 33.1703ZM77.8596 34.6972C76.7165 34.6972 75.8488 34.1549 75.3816 33.3456H75.3148V37.5006H73.4626V25.753H75.2648V27.0462H75.3315C75.8154 26.2035 76.7165 25.6362 77.9013 25.6362C79.8787 25.6362 81.2888 27.1297 81.2888 29.7662V30.5505C81.2888 33.1703 79.8954 34.6972 77.8596 34.6972ZM77.4341 33.1703C78.6105 33.1703 79.4115 32.2275 79.4115 30.4504V29.8329C79.4115 28.1225 78.6606 27.1463 77.4007 27.1463C76.1075 27.1463 75.2981 28.1976 75.2981 29.8246V30.4504C75.2981 32.1191 76.1158 33.1703 77.4341 33.1703ZM85.1272 31.4099H86.9794C87.0629 32.3944 87.9306 33.2371 89.5409 33.2371C91.0177 33.2371 91.8938 32.5446 91.8938 31.4683C91.8938 30.6005 91.3097 30.1333 90.0916 29.8413L88.2226 29.3741C86.7542 29.032 85.4359 28.1559 85.4359 26.3036C85.4359 24.126 87.3382 22.9329 89.5492 22.9329C91.7603 22.9329 93.6042 24.126 93.6459 26.2536H91.827C91.7436 25.2857 91.001 24.4848 89.5242 24.4848C88.2226 24.4848 87.3382 25.1022 87.3382 26.1618C87.3382 26.9044 87.8555 27.4384 88.9151 27.6803L90.7757 28.1392C92.4861 28.5564 93.7877 29.3657 93.7877 31.3014C93.7877 33.5375 91.9772 34.7973 89.399 34.7973C86.2285 34.7973 85.1689 32.9451 85.1272 31.4099ZM96.0449 25.753V23.6087H97.8637V25.753H99.5825V27.2381H97.8637V31.9439C97.8637 32.9034 98.2225 33.1703 99.2154 33.1703C99.3739 33.1703 99.5241 33.1703 99.6326 33.1537V34.5721C99.4824 34.5971 99.1319 34.6305 98.7565 34.6305C96.6122 34.6305 96.0198 33.8629 96.0198 32.094V27.2381H94.8017V25.753H96.0449ZM104.585 25.6028C107.121 25.6028 108.498 27.3883 108.498 29.7912V30.5004C108.498 32.9868 107.129 34.7222 104.585 34.7222C102.04 34.7222 100.655 32.9868 100.655 30.5004V29.7912C100.655 27.3966 102.048 25.6028 104.585 25.6028ZM104.585 27.0879C103.208 27.0879 102.524 28.2143 102.524 29.8163V30.4921C102.524 32.069 103.2 33.2287 104.585 33.2287C105.97 33.2287 106.637 32.0773 106.637 30.4921V29.8163C106.637 28.206 105.961 27.0879 104.585 27.0879ZM110.062 34.5721V25.753H111.915V26.9127H111.981C112.207 26.3621 112.866 25.6278 114.092 25.6278C114.334 25.6278 114.543 25.6445 114.718 25.6779V27.3132C114.559 27.2715 114.234 27.2465 113.925 27.2465C112.44 27.2465 111.94 28.1642 111.94 29.349V34.5721H110.062ZM119.211 34.7222C116.85 34.7222 115.348 33.162 115.348 30.5505V29.6577C115.348 27.1964 116.817 25.6028 119.136 25.6028C121.489 25.6028 122.907 27.2548 122.907 29.7412V30.5839H117.175V30.7924C117.175 32.2776 117.976 33.2621 119.236 33.2621C120.179 33.2621 120.821 32.7949 121.047 32.0356H122.807C122.54 33.4624 121.389 34.7222 119.211 34.7222ZM117.175 29.2906H121.097V29.2739C121.097 28.0224 120.321 27.0379 119.144 27.0379C117.951 27.0379 117.175 28.0224 117.175 29.2739V29.2906Z" fill="white"/>
</svg>
