<svg width="144" height="49" viewBox="0 0 144 49" fill="none" xmlns="http://www.w3.org/2000/svg">
<rect x="0.599702" y="0.671724" width="142.729" height="46.7768" rx="6.59673" fill="black"/>
<rect x="0.599702" y="0.671724" width="142.729" height="46.7768" rx="6.59673" stroke="#A6A6A6" stroke-width="1.1994"/>
<path d="M21.3556 23.4145L9.70312 36.0613C9.70422 36.0635 9.70422 36.0669 9.70531 36.0691C10.0632 37.4424 11.289 38.453 12.7446 38.453C13.3268 38.453 13.8729 38.2918 14.3414 38.0098L14.3786 37.9874L27.4943 30.2482L21.3556 23.4145Z" fill="#EA4335"/>
<path d="M33.1429 21.261L33.1319 21.2531L27.4693 17.8967L21.0898 23.7019L27.4923 30.2469L33.1243 26.924C34.1115 26.3779 34.7824 25.3135 34.7824 24.0869C34.7824 22.867 34.1213 21.8082 33.1429 21.261Z" fill="#FBBC04"/>
<path d="M9.70296 12.0581C9.63291 12.3222 9.5957 12.5998 9.5957 12.8863V35.2342C9.5957 35.5207 9.63291 35.7983 9.70405 36.0613L21.756 23.7379L9.70296 12.0581Z" fill="#4285F4"/>
<path d="M21.4401 24.0601L27.4705 17.8945L14.37 10.1273C13.894 9.83521 13.338 9.66733 12.7437 9.66733C11.2881 9.66733 10.0601 10.6802 9.70227 12.0546C9.70227 12.0557 9.70117 12.0568 9.70117 12.0579L21.4401 24.0601Z" fill="#34A853"/>
<path d="M52.3052 14.123C52.3052 15.3224 51.9494 16.2779 51.2377 16.9896C50.4381 17.8371 49.3867 18.2609 48.0833 18.2609C46.8359 18.2609 45.7804 17.8291 44.9169 16.9656C44.0533 16.102 43.6215 15.0385 43.6215 13.7752C43.6215 12.5118 44.0533 11.4483 44.9169 10.5847C45.7804 9.72117 46.8359 9.28939 48.0833 9.28939C48.715 9.28939 49.3107 9.40133 49.8704 9.62522C50.4301 9.84911 50.8899 10.165 51.2497 10.5728L50.4581 11.3644C50.1943 11.0445 49.8504 10.7966 49.4266 10.6207C49.0108 10.4368 48.5631 10.3449 48.0833 10.3449C47.1478 10.3449 46.3562 10.6687 45.7085 11.3164C45.0688 11.9721 44.749 12.7916 44.749 13.7752C44.749 14.7587 45.0688 15.5783 45.7085 16.2339C46.3562 16.8816 47.1478 17.2055 48.0833 17.2055C48.9389 17.2055 49.6505 16.9656 50.2182 16.4858C50.786 16.0061 51.1138 15.3464 51.2018 14.5068H48.0833V13.4753H52.2452C52.2852 13.6992 52.3052 13.9151 52.3052 14.123ZM58.6594 9.48129V10.5368H54.7494V13.2594H58.2756V14.2909H54.7494V17.0136H58.6594V18.069H53.6459V9.48129H58.6594ZM63.0731 10.5368V18.069H61.9697V10.5368H59.5709V9.48129H65.472V10.5368H63.0731ZM70.3627 18.069H69.2593V9.48129H70.3627V18.069ZM75.0203 10.5368V18.069H73.9169V10.5368H71.5181V9.48129H77.4192V10.5368H75.0203ZM89.38 13.7752C89.38 15.0465 88.9562 16.11 88.1087 16.9656C87.2531 17.8291 86.2056 18.2609 84.9662 18.2609C83.7188 18.2609 82.6714 17.8291 81.8238 16.9656C80.9762 16.11 80.5524 15.0465 80.5524 13.7752C80.5524 12.5038 80.9762 11.4403 81.8238 10.5847C82.6714 9.72117 83.7188 9.28939 84.9662 9.28939C86.2136 9.28939 87.2611 9.72517 88.1087 10.5967C88.9562 11.4523 89.38 12.5118 89.38 13.7752ZM81.6798 13.7752C81.6798 14.7667 81.9917 15.5863 82.6154 16.2339C83.2471 16.8816 84.0307 17.2055 84.9662 17.2055C85.9018 17.2055 86.6814 16.8816 87.3051 16.2339C87.9367 15.5943 88.2526 14.7747 88.2526 13.7752C88.2526 12.7757 87.9367 11.9561 87.3051 11.3164C86.6814 10.6687 85.9018 10.3449 84.9662 10.3449C84.0307 10.3449 83.2471 10.6687 82.6154 11.3164C81.9917 11.9641 81.6798 12.7837 81.6798 13.7752ZM91.7857 18.069H90.6822V9.48129H92.0256L96.1995 16.162H96.2475L96.1995 14.5068V9.48129H97.3029V18.069H96.1515L91.7857 11.0645H91.7377L91.7857 12.7197V18.069Z" fill="white"/>
<path d="M112.165 38.352H114.119V25.1448H112.165V38.352ZM129.761 29.9022L127.522 35.6284H127.455L125.131 29.9022H123.026L126.512 37.9051L124.526 42.3572H126.562L131.934 29.9022H129.761ZM118.683 36.8518C118.042 36.8518 117.15 36.5296 117.15 35.7298C117.15 34.7114 118.261 34.3205 119.221 34.3205C120.079 34.3205 120.484 34.5075 121.006 34.7621C120.854 35.9855 119.81 36.8518 118.683 36.8518ZM118.918 29.6138C117.504 29.6138 116.038 30.2424 115.433 31.6359L117.167 32.3659C117.537 31.6359 118.227 31.3971 118.952 31.3971C119.962 31.3971 120.989 32.0088 121.006 33.097V33.2323C120.652 33.0284 119.895 32.723 118.968 32.723C117.1 32.723 115.196 33.7595 115.196 35.696C115.196 37.4635 116.729 38.6024 118.446 38.6024C119.76 38.6024 120.484 38.0076 120.939 37.3103H121.006V38.3299H122.891V33.2661C122.891 30.9217 121.157 29.6138 118.918 29.6138ZM106.845 31.5102H104.066V26.9831H106.845C108.305 26.9831 109.134 28.2033 109.134 29.2461C109.134 30.2699 108.305 31.5102 106.845 31.5102ZM106.794 25.1448H102.114V38.352H104.066V33.3485H106.794C108.96 33.3485 111.088 31.7658 111.088 29.2461C111.088 26.7264 108.96 25.1448 106.794 25.1448ZM81.2688 36.8539C79.9193 36.8539 78.7896 35.714 78.7896 34.1482C78.7896 32.5656 79.9193 31.4077 81.2688 31.4077C82.6016 31.4077 83.6464 32.5656 83.6464 34.1482C83.6464 35.714 82.6016 36.8539 81.2688 36.8539ZM83.5124 30.6417H83.4444C83.0057 30.1145 82.1629 29.6381 81.1002 29.6381C78.8734 29.6381 76.8329 31.6116 76.8329 34.1482C76.8329 36.6669 78.8734 38.6246 81.1002 38.6246C82.1629 38.6246 83.0057 38.1481 83.4444 37.603H83.5124V38.2506C83.5124 39.9695 82.6016 40.8887 81.1337 40.8887C79.936 40.8887 79.1938 40.0203 78.8901 39.2881L77.1868 40.0033C77.6757 41.1951 78.9749 42.6583 81.1337 42.6583C83.4276 42.6583 85.3676 41.2965 85.3676 37.978V29.9096H83.5124V30.6417ZM86.7171 38.352H88.6739V25.1437H86.7171V38.352ZM91.5571 33.9951C91.5069 32.2592 92.8899 31.3739 93.8845 31.3739C94.6613 31.3739 95.3188 31.7648 95.5376 32.3268L91.5571 33.9951ZM97.6294 32.4969C97.2588 31.4933 96.1281 29.6381 93.8175 29.6381C91.5237 29.6381 89.6182 31.4584 89.6182 34.1313C89.6182 36.65 91.5069 38.6246 94.0363 38.6246C96.0779 38.6246 97.2588 37.3653 97.7477 36.6331L96.2297 35.6115C95.724 36.3606 95.032 36.8539 94.0363 36.8539C93.0417 36.8539 92.3329 36.3944 91.8775 35.4932L97.8315 33.0072L97.6294 32.4969ZM50.1944 31.0168V32.9227H54.714C54.579 33.9951 54.2251 34.7779 53.6859 35.322C53.0274 35.9866 51.9983 36.7187 50.1944 36.7187C47.4105 36.7187 45.235 34.4546 45.235 31.6465C45.235 28.8372 47.4105 26.5742 50.1944 26.5742C51.6957 26.5742 52.7918 27.1701 53.6011 27.9361L54.9339 26.5911C53.8032 25.5019 52.3029 24.6673 50.1944 24.6673C46.3824 24.6673 43.1777 27.7998 43.1777 31.6465C43.1777 35.4932 46.3824 38.6246 50.1944 38.6246C52.2516 38.6246 53.8032 37.9432 55.0177 36.6669C56.2667 35.4076 56.654 33.638 56.654 32.2075C56.654 31.7648 56.6205 31.357 56.5525 31.0168H50.1944ZM61.7935 36.8539C60.444 36.8539 59.2798 35.7309 59.2798 34.1313C59.2798 32.5138 60.444 31.4077 61.7935 31.4077C63.142 31.4077 64.3062 32.5138 64.3062 34.1313C64.3062 35.7309 63.142 36.8539 61.7935 36.8539ZM61.7935 29.6381C59.33 29.6381 57.323 31.5271 57.323 34.1313C57.323 36.7187 59.33 38.6246 61.7935 38.6246C64.2559 38.6246 66.2629 36.7187 66.2629 34.1313C66.2629 31.5271 64.2559 29.6381 61.7935 29.6381ZM71.5437 36.8539C70.1942 36.8539 69.03 35.7309 69.03 34.1313C69.03 32.5138 70.1942 31.4077 71.5437 31.4077C72.8932 31.4077 74.0564 32.5138 74.0564 34.1313C74.0564 35.7309 72.8932 36.8539 71.5437 36.8539ZM71.5437 29.6381C69.0813 29.6381 67.0743 31.5271 67.0743 34.1313C67.0743 36.7187 69.0813 38.6246 71.5437 38.6246C74.0061 38.6246 76.0131 36.7187 76.0131 34.1313C76.0131 31.5271 74.0061 29.6381 71.5437 29.6381Z" fill="white"/>
</svg>
