<svg width="142" height="48" viewBox="0 0 142 48" fill="none" xmlns="http://www.w3.org/2000/svg">
<rect width="141.093" height="47.0309" rx="7.05463" fill="white"/>
<path d="M25.0041 22.9819L15.373 33.4348C15.374 33.4367 15.374 33.4394 15.3749 33.4413C15.6707 34.5763 16.6838 35.4116 17.8869 35.4116C18.3681 35.4116 18.8195 35.2784 19.2067 35.0453L19.2374 35.0268L30.0779 28.6302L25.0041 22.9819Z" fill="#EA4335"/>
<path d="M34.7492 21.2018L34.7402 21.1953L30.0599 18.4211L24.7871 23.2193L30.0789 28.6289L34.7339 25.8825C35.5498 25.4311 36.1043 24.5513 36.1043 23.5375C36.1043 22.5292 35.5579 21.6541 34.7492 21.2018Z" fill="#FBBC04"/>
<path d="M15.3738 13.5953C15.3159 13.8136 15.2852 14.043 15.2852 14.2799V32.751C15.2852 32.9878 15.3159 33.2172 15.3747 33.4346L25.3359 23.249L15.3738 13.5953Z" fill="#4285F4"/>
<path d="M25.0756 23.5154L30.0598 18.4194L19.232 11.9996C18.8385 11.7582 18.379 11.6194 17.8878 11.6194C16.6847 11.6194 15.6697 12.4566 15.374 13.5925C15.374 13.5934 15.373 13.5944 15.373 13.5953L25.0756 23.5154Z" fill="#34A853"/>
<path d="M58.1027 15.384C58.1027 16.3753 57.8086 17.1651 57.2204 17.7533C56.5595 18.4538 55.6904 18.8041 54.6132 18.8041C53.5822 18.8041 52.7098 18.4472 51.996 17.7335C51.2823 17.0197 50.9254 16.1407 50.9254 15.0965C50.9254 14.0523 51.2823 13.1733 51.996 12.4596C52.7098 11.7458 53.5822 11.3889 54.6132 11.3889C55.1353 11.3889 55.6276 11.4814 56.0903 11.6665C56.5529 11.8515 56.9329 12.1126 57.2303 12.4497L56.576 13.1039C56.3579 12.8396 56.0737 12.6347 55.7235 12.4893C55.3798 12.3373 55.0097 12.2613 54.6132 12.2613C53.8399 12.2613 53.1856 12.529 52.6503 13.0643C52.1216 13.6062 51.8572 14.2836 51.8572 15.0965C51.8572 15.9094 52.1216 16.5868 52.6503 17.1288C53.1856 17.6641 53.8399 17.9317 54.6132 17.9317C55.3203 17.9317 55.9085 17.7335 56.3777 17.3369C56.847 16.9404 57.1179 16.3952 57.1906 15.7012H54.6132V14.8487H58.0531C58.0861 15.0337 58.1027 15.2122 58.1027 15.384ZM63.3546 11.5475V12.4199H60.1228V14.6702H63.0374V15.5228H60.1228V17.7731H63.3546V18.6455H59.2108V11.5475H63.3546ZM67.0026 12.4199V18.6455H66.0906V12.4199H64.1079V11.5475H68.9853V12.4199H67.0026ZM73.0276 18.6455H72.1156V11.5475H73.0276V18.6455ZM76.8773 12.4199V18.6455H75.9652V12.4199H73.9826V11.5475H78.86V12.4199H76.8773ZM88.7459 15.0965C88.7459 16.1473 88.3956 17.0263 87.6951 17.7335C86.9879 18.4472 86.1222 18.8041 85.0978 18.8041C84.0668 18.8041 83.201 18.4472 82.5005 17.7335C81.7999 17.0263 81.4497 16.1473 81.4497 15.0965C81.4497 14.0457 81.7999 13.1667 82.5005 12.4596C83.201 11.7458 84.0668 11.3889 85.0978 11.3889C86.1288 11.3889 86.9945 11.7491 87.6951 12.4695C88.3956 13.1766 88.7459 14.0523 88.7459 15.0965ZM82.3815 15.0965C82.3815 15.916 82.6393 16.5934 83.1548 17.1288C83.6769 17.6641 84.3245 17.9317 85.0978 17.9317C85.871 17.9317 86.5154 17.6641 87.0309 17.1288C87.553 16.6 87.814 15.9226 87.814 15.0965C87.814 14.2704 87.553 13.593 87.0309 13.0643C86.5154 12.529 85.871 12.2613 85.0978 12.2613C84.3245 12.2613 83.6769 12.529 83.1548 13.0643C82.6393 13.5996 82.3815 14.277 82.3815 15.0965ZM90.7342 18.6455H89.8222V11.5475H90.9325L94.3824 17.0693H94.422L94.3824 15.7012V11.5475H95.2944V18.6455H94.3427L90.7342 12.8561H90.6946L90.7342 14.2241V18.6455Z" fill="black"/>
<path d="M107.578 34.9303H109.193V24.0141H107.578V34.9303ZM122.122 27.9462L120.271 32.6791H120.216L118.295 27.9462H116.555L119.436 34.5609L117.794 38.2406H119.478L123.918 27.9462H122.122ZM112.965 33.6903C112.436 33.6903 111.698 33.424 111.698 32.7629C111.698 31.9211 112.616 31.5981 113.41 31.5981C114.119 31.5981 114.454 31.7526 114.885 31.9631C114.76 32.9742 113.897 33.6903 112.965 33.6903ZM113.16 27.7079C111.991 27.7079 110.779 28.2274 110.279 29.3792L111.712 29.9826C112.018 29.3792 112.589 29.1819 113.187 29.1819C114.023 29.1819 114.871 29.6874 114.885 30.5869V30.6986C114.593 30.5301 113.967 30.2777 113.201 30.2777C111.657 30.2777 110.084 31.1344 110.084 32.735C110.084 34.1959 111.35 35.1372 112.77 35.1372C113.856 35.1372 114.454 34.6456 114.83 34.0693H114.885V34.9119H116.444V30.7266C116.444 28.7889 115.011 27.7079 113.16 27.7079ZM103.181 29.2753H100.884V25.5335H103.181C104.388 25.5335 105.073 26.5421 105.073 27.404C105.073 28.2501 104.388 29.2753 103.181 29.2753ZM103.139 24.0141H99.2704V34.9303H100.884V30.7947H103.139C104.929 30.7947 106.688 29.4866 106.688 27.404C106.688 25.3214 104.929 24.0141 103.139 24.0141ZM82.0418 33.692C80.9264 33.692 79.9927 32.7498 79.9927 31.4557C79.9927 30.1476 80.9264 29.1906 82.0418 29.1906C83.1433 29.1906 84.0069 30.1476 84.0069 31.4557C84.0069 32.7498 83.1433 33.692 82.0418 33.692ZM83.8962 28.5575H83.8399C83.4774 28.1218 82.7808 27.7279 81.9025 27.7279C80.0619 27.7279 78.3754 29.3591 78.3754 31.4557C78.3754 33.5375 80.0619 35.1555 81.9025 35.1555C82.7808 35.1555 83.4774 34.7617 83.8399 34.3111H83.8962V34.8464C83.8962 36.2672 83.1433 37.0269 81.9302 37.0269C80.9402 37.0269 80.3267 36.3091 80.0758 35.7039L78.6679 36.2951C79.072 37.2801 80.1458 38.4895 81.9302 38.4895C83.8261 38.4895 85.4295 37.3639 85.4295 34.6211V27.9524H83.8962V28.5575ZM86.5449 34.9303H88.1622V24.0133H86.5449V34.9303ZM90.5453 31.3291C90.5038 29.8944 91.6469 29.1626 92.469 29.1626C93.111 29.1626 93.6545 29.4857 93.8353 29.9503L90.5453 31.3291ZM95.5642 30.0909C95.2579 29.2613 94.3234 27.7279 92.4136 27.7279C90.5177 27.7279 88.9428 29.2325 88.9428 31.4417C88.9428 33.5235 90.5038 35.1555 92.5944 35.1555C94.2818 35.1555 95.2579 34.1147 95.662 33.5095L94.4073 32.6651C93.9893 33.2842 93.4174 33.692 92.5944 33.692C91.7724 33.692 91.1866 33.3122 90.8101 32.5673L95.7313 30.5126L95.5642 30.0909ZM56.358 28.8675V30.4428H60.0936C59.982 31.3291 59.6895 31.9762 59.2439 32.4259C58.6996 32.9751 57.849 33.5803 56.358 33.5803C54.0571 33.5803 52.259 31.709 52.259 29.3879C52.259 27.066 54.0571 25.1956 56.358 25.1956C57.5989 25.1956 58.5049 25.6881 59.1738 26.3212L60.2753 25.2096C59.3408 24.3093 58.1008 23.6194 56.358 23.6194C53.2074 23.6194 50.5586 26.2085 50.5586 29.3879C50.5586 32.5673 53.2074 35.1555 56.358 35.1555C58.0584 35.1555 59.3408 34.5923 60.3446 33.5375C61.3769 32.4966 61.6971 31.034 61.6971 29.8516C61.6971 29.4857 61.6694 29.1487 61.6131 28.8675H56.358ZM65.945 33.692C64.8296 33.692 63.8673 32.7638 63.8673 31.4417C63.8673 30.1048 64.8296 29.1906 65.945 29.1906C67.0595 29.1906 68.0218 30.1048 68.0218 31.4417C68.0218 32.7638 67.0595 33.692 65.945 33.692ZM65.945 27.7279C63.9089 27.7279 62.25 29.2893 62.25 31.4417C62.25 33.5803 63.9089 35.1555 65.945 35.1555C67.9802 35.1555 69.6391 33.5803 69.6391 31.4417C69.6391 29.2893 67.9802 27.7279 65.945 27.7279ZM74.0038 33.692C72.8884 33.692 71.9261 32.7638 71.9261 31.4417C71.9261 30.1048 72.8884 29.1906 74.0038 29.1906C75.1192 29.1906 76.0805 30.1048 76.0805 31.4417C76.0805 32.7638 75.1192 33.692 74.0038 33.692ZM74.0038 27.7279C71.9685 27.7279 70.3097 29.2893 70.3097 31.4417C70.3097 33.5803 71.9685 35.1555 74.0038 35.1555C76.039 35.1555 77.6978 33.5803 77.6978 31.4417C77.6978 29.2893 76.039 27.7279 74.0038 27.7279Z" fill="black"/>
</svg>
