<svg width="142" height="48" viewBox="0 0 142 48" fill="none" xmlns="http://www.w3.org/2000/svg">
<rect x="0.908203" width="141.093" height="47.0309" rx="7.05463" fill="white"/>
<path d="M33.2854 23.3053C33.298 22.3534 33.557 21.4201 34.0383 20.5922C34.5196 19.7643 35.2076 19.0686 36.0382 18.5701C35.5105 17.8343 34.8144 17.2288 34.0051 16.8016C33.1957 16.3744 32.2955 16.1374 31.376 16.1093C29.4144 15.9083 27.5127 17.2553 26.5131 17.2553C25.4941 17.2553 23.9551 16.1293 22.2978 16.1626C21.2258 16.1964 20.1811 16.5007 19.2654 17.0459C18.3497 17.5911 17.5943 18.3586 17.0728 19.2736C14.8136 23.0923 16.4988 28.7046 18.6629 31.7914C19.7456 33.3029 21.0111 34.9913 22.6669 34.9314C24.2871 34.8658 24.8923 33.9227 26.8481 33.9227C28.7858 33.9227 29.3535 34.9314 31.0429 34.8933C32.7816 34.8658 33.877 33.3751 34.9218 31.8493C35.6997 30.7723 36.2984 29.582 36.6955 28.3224C35.6854 27.9053 34.8234 27.2071 34.217 26.315C33.6106 25.4228 33.2866 24.3761 33.2854 23.3053Z" fill="black"/>
<path d="M30.0952 14.0791C31.0432 12.968 31.5102 11.54 31.3971 10.0981C29.9488 10.2467 28.611 10.9224 27.6502 11.9909C27.1804 12.5128 26.8206 13.12 26.5914 13.7778C26.3622 14.4356 26.2679 15.131 26.3142 15.8244C27.0386 15.8317 27.7552 15.6784 28.4102 15.3761C29.0651 15.0737 29.6412 14.6303 30.0952 14.0791Z" fill="black"/>
<path d="M49.5894 12.1836H51.7235C53.3838 12.1836 54.1119 13.1852 54.1119 14.7877C54.1119 16.4134 53.3646 17.4419 51.7235 17.4419H49.5894V12.1836ZM50.9685 13.2661V16.3594H51.4924C52.3476 16.3594 52.6981 15.8509 52.6981 14.8224C52.6981 13.7938 52.3437 13.2661 51.4924 13.2661H50.9685ZM56.82 13.2391C58.0489 13.2391 58.8078 14.0211 58.8078 15.2076V15.5158C58.8078 16.8024 58.0489 17.5189 56.82 17.5189C55.5796 17.5189 54.8207 16.8063 54.8207 15.5196V15.2153C54.8207 14.0404 55.5835 13.2391 56.82 13.2391ZM56.8162 14.2253C56.3385 14.2253 56.1767 14.703 56.1767 15.1999V15.5582C56.1767 16.0204 56.3231 16.5328 56.8162 16.5328C57.3092 16.5328 57.4518 16.0281 57.4518 15.5582V15.1999C57.4518 14.6991 57.2938 14.2253 56.8162 14.2253ZM65.5299 13.3162L64.4821 17.4419H63.0683L62.4057 14.7261H62.3634L61.7085 17.4419H60.2832L59.2277 13.3162H60.599L61.0729 16.1668H61.1268L61.7624 13.3162H63.0144L63.6616 16.1668H63.7155L64.197 13.3162H65.5299ZM66.1925 17.4419V13.3162H67.4868V14.0211H67.5523C67.6525 13.7052 67.9992 13.2545 68.7581 13.2545C69.5824 13.2545 70.1102 13.7438 70.1102 14.7338V17.4419H68.7773V15.0805C68.7773 14.5142 68.4653 14.3563 68.1802 14.3563C67.8104 14.3563 67.5292 14.6413 67.5292 15.1652V17.4419H66.1925ZM71.1657 17.4419V11.8716H72.5024V17.4419H71.1657ZM75.4031 13.2391C76.632 13.2391 77.3909 14.0211 77.3909 15.2076V15.5158C77.3909 16.8024 76.632 17.5189 75.4031 17.5189C74.1627 17.5189 73.4038 16.8063 73.4038 15.5196V15.2153C73.4038 14.0404 74.1666 13.2391 75.4031 13.2391ZM75.3993 14.2253C74.9216 14.2253 74.7598 14.703 74.7598 15.1999V15.5582C74.7598 16.0204 74.9062 16.5328 75.3993 16.5328C75.8924 16.5328 76.0349 16.0281 76.0349 15.5582V15.1999C76.0349 14.6991 75.877 14.2253 75.3993 14.2253ZM79.4326 17.4997C78.6275 17.4997 78.0689 17.0374 78.0689 16.2477C78.0689 15.4888 78.5928 14.9996 79.5558 14.9996H80.4881V14.6683C80.4881 14.3717 80.2878 14.2137 79.9796 14.2137C79.6599 14.2137 79.4865 14.3794 79.4672 14.6067H78.2153C78.2422 13.9518 78.6583 13.2545 79.9988 13.2545C80.9966 13.2545 81.8055 13.632 81.8055 14.7145V17.4419H80.5536V16.9411H80.4881C80.3648 17.2185 80.0412 17.4997 79.4326 17.4997ZM79.9025 16.5867C80.2107 16.5867 80.4881 16.3864 80.4881 16.0936V15.7007H79.9295C79.579 15.7007 79.3786 15.8779 79.3786 16.136C79.3786 16.4326 79.6329 16.5867 79.9025 16.5867ZM84.1515 13.2738C84.7294 13.2738 85.1647 13.5396 85.3149 13.9595H85.3766V11.8716H86.7171V17.4419H85.3843V16.7793H85.3188C85.1801 17.1992 84.7294 17.4843 84.1438 17.4843C83.2347 17.4843 82.6453 16.8024 82.6453 15.5928V15.1575C82.6453 13.9479 83.2386 13.2738 84.1515 13.2738ZM84.6947 14.3023C84.2979 14.3023 84.0283 14.6182 84.0283 15.2307V15.5273C84.0283 16.1437 84.3018 16.4634 84.6986 16.4634C85.0953 16.4634 85.3766 16.1475 85.3766 15.5466V15.1922C85.3766 14.6144 85.0838 14.3023 84.6947 14.3023ZM91.3282 13.2391C92.5571 13.2391 93.316 14.0211 93.316 15.2076V15.5158C93.316 16.8024 92.5571 17.5189 91.3282 17.5189C90.0878 17.5189 89.3289 16.8063 89.3289 15.5196V15.2153C89.3289 14.0404 90.0917 13.2391 91.3282 13.2391ZM91.3244 14.2253C90.8467 14.2253 90.6849 14.703 90.6849 15.1999V15.5582C90.6849 16.0204 90.8313 16.5328 91.3244 16.5328C91.8175 16.5328 91.96 16.0281 91.96 15.5582V15.1999C91.96 14.6991 91.8021 14.2253 91.3244 14.2253ZM94.1827 17.4419V13.3162H95.4771V14.0211H95.5426C95.6427 13.7052 95.9894 13.2545 96.7483 13.2545C97.5727 13.2545 98.1004 13.7438 98.1004 14.7338V17.4419H96.7676V15.0805C96.7676 14.5142 96.4555 14.3563 96.1705 14.3563C95.8007 14.3563 95.5195 14.6413 95.5195 15.1652V17.4419H94.1827ZM101.236 13.3894V12.3724H102.523V13.3894H103.424V14.3794H102.523V16.005C102.523 16.344 102.708 16.4673 103.058 16.4673C103.216 16.4673 103.359 16.4596 103.44 16.4519V17.3995C103.339 17.4188 103.054 17.4496 102.739 17.4496C101.668 17.4496 101.201 17.1337 101.201 16.2631V14.3794H100.574V13.3894H101.236ZM104.287 17.4419V11.8716H105.62V14.0211H105.685C105.778 13.7206 106.125 13.2545 106.872 13.2545C107.677 13.2545 108.224 13.7476 108.224 14.7338V17.4419H106.887V15.0805C106.887 14.5142 106.575 14.3563 106.279 14.3563C105.913 14.3563 105.62 14.6375 105.62 15.1652V17.4419H104.287ZM111.055 17.5189C109.869 17.5189 109.052 16.8679 109.052 15.5466V15.1999C109.052 13.8786 109.934 13.2391 110.998 13.2391C112.142 13.2391 112.924 13.9787 112.924 15.1999V15.6468H110.354V15.8317C110.354 16.2785 110.663 16.5443 111.048 16.5443C111.398 16.5443 111.672 16.3748 111.691 16.1167H112.905C112.881 16.6984 112.361 17.5189 111.055 17.5189ZM110.354 14.9187H111.649V14.9033C111.649 14.468 111.398 14.1791 111.009 14.1791C110.62 14.1791 110.354 14.468 110.354 14.9033V14.9187Z" fill="black"/>
<path d="M50.9338 32.4419H49.1541L52.7752 21.9253H54.7321L58.3455 32.4419H56.4964L55.5642 29.5296H51.8738L50.9338 32.4419ZM53.7613 23.7436H53.692L52.2667 28.189H55.1713L53.7613 23.7436ZM63.2573 32.5575C62.2018 32.5575 61.4005 32.0567 60.969 31.3093H60.9074V35.1462H59.197V24.2983H60.8612V25.4925H60.9228C61.3697 24.7143 62.2018 24.1904 63.2958 24.1904C65.1217 24.1904 66.4238 25.5695 66.4238 28.0041V28.7284C66.4238 31.1475 65.1372 32.5575 63.2573 32.5575ZM62.8643 31.1475C63.9507 31.1475 64.6903 30.2769 64.6903 28.6359V28.0658C64.6903 26.4864 63.9969 25.5849 62.8335 25.5849C61.6393 25.5849 60.892 26.5557 60.892 28.0581V28.6359C60.892 30.1768 61.647 31.1475 62.8643 31.1475ZM71.9519 32.5575C70.8964 32.5575 70.0952 32.0567 69.6637 31.3093H69.6021V35.1462H67.8917V24.2983H69.5558V25.4925H69.6175C70.0643 24.7143 70.8964 24.1904 71.9905 24.1904C73.8164 24.1904 75.1185 25.5695 75.1185 28.0041V28.7284C75.1185 31.1475 73.8318 32.5575 71.9519 32.5575ZM71.559 31.1475C72.6453 31.1475 73.385 30.2769 73.385 28.6359V28.0658C73.385 26.4864 72.6916 25.5849 71.5282 25.5849C70.334 25.5849 69.5867 26.5557 69.5867 28.0581V28.6359C69.5867 30.1768 70.3417 31.1475 71.559 31.1475ZM78.6629 29.5219H80.3733C80.4503 30.431 81.2516 31.2092 82.7385 31.2092C84.1022 31.2092 84.9112 30.5697 84.9112 29.5758C84.9112 28.7746 84.3719 28.3431 83.247 28.0735L81.5212 27.642C80.1652 27.3261 78.9479 26.5172 78.9479 24.8068C78.9479 22.7959 80.7046 21.6942 82.7462 21.6942C84.7879 21.6942 86.4906 22.7959 86.5291 24.7606H84.8496C84.7725 23.8668 84.0868 23.1272 82.7231 23.1272C81.5212 23.1272 80.7046 23.6973 80.7046 24.6758C80.7046 25.3615 81.1822 25.8546 82.1607 26.078L83.8788 26.5018C85.4582 26.887 86.6601 27.6343 86.6601 29.4218C86.6601 31.4865 84.9882 32.6499 82.6076 32.6499C79.6799 32.6499 78.7014 30.9395 78.6629 29.5219ZM88.7443 24.2983V22.3182H90.4239V24.2983H92.011V25.6697H90.4239V30.015C90.4239 30.901 90.7552 31.1475 91.672 31.1475C91.8184 31.1475 91.9571 31.1475 92.0573 31.1321V32.4419C91.9186 32.465 91.595 32.4958 91.2483 32.4958C89.2682 32.4958 88.7212 31.787 88.7212 30.1537V25.6697H87.5964V24.2983H88.7443ZM96.63 24.1596C98.9722 24.1596 100.243 25.8084 100.243 28.0272V28.6821C100.243 30.978 98.9799 32.5806 96.63 32.5806C94.2802 32.5806 93.0012 30.978 93.0012 28.6821V28.0272C93.0012 25.8161 94.2879 24.1596 96.63 24.1596ZM96.63 25.531C95.3588 25.531 94.727 26.5711 94.727 28.0504V28.6744C94.727 30.1306 95.3511 31.2015 96.63 31.2015C97.909 31.2015 98.5253 30.1383 98.5253 28.6744V28.0504C98.5253 26.5634 97.9013 25.531 96.63 25.531ZM101.688 32.4419V24.2983H103.399V25.3692H103.46C103.668 24.8607 104.277 24.1827 105.409 24.1827C105.633 24.1827 105.825 24.1981 105.987 24.229V25.739C105.841 25.7005 105.54 25.6774 105.255 25.6774C103.884 25.6774 103.422 26.5249 103.422 27.6189V32.4419H101.688ZM110.136 32.5806C107.956 32.5806 106.569 31.1398 106.569 28.7284V27.904C106.569 25.6312 107.925 24.1596 110.067 24.1596C112.24 24.1596 113.549 25.6851 113.549 27.981V28.7592H108.256V28.9518C108.256 30.3232 108.996 31.2323 110.159 31.2323C111.03 31.2323 111.623 30.8008 111.831 30.0997H113.457C113.21 31.4172 112.147 32.5806 110.136 32.5806ZM108.256 27.565H111.878V27.5496C111.878 26.3939 111.161 25.4848 110.075 25.4848C108.973 25.4848 108.256 26.3939 108.256 27.5496V27.565Z" fill="black"/>
</svg>
