<svg width="25" height="24" viewBox="0 0 25 24" fill="none" xmlns="http://www.w3.org/2000/svg">
<path fill-rule="evenodd" clip-rule="evenodd" d="M16.0898 12C16.0898 14.0711 14.4109 15.75 12.3398 15.75C10.2688 15.75 8.58984 14.0711 8.58984 12C8.58984 9.92893 10.2688 8.25 12.3398 8.25C14.4109 8.25 16.0898 9.92893 16.0898 12ZM13.8398 12C13.8398 12.8284 13.1683 13.5 12.3398 13.5C11.5114 13.5 10.8398 12.8284 10.8398 12C10.8398 11.1716 11.5114 10.5 12.3398 10.5C13.1683 10.5 13.8398 11.1716 13.8398 12Z" fill="#9F8332"/>
<path fill-rule="evenodd" clip-rule="evenodd" d="M0.339844 3V9C1.9967 9 3.33984 10.3431 3.33984 12C3.33984 13.6569 1.9967 15 0.339844 15V21H24.3398V15C22.683 15 21.3398 13.6569 21.3398 12C21.3398 10.3431 22.683 9 24.3398 9V3H0.339844ZM5.58984 12C5.58984 9.9057 4.36355 8.09782 2.58984 7.25522V5.25H22.0898V7.25522C20.3161 8.09782 19.0898 9.9057 19.0898 12C19.0898 14.0943 20.3161 15.9022 22.0898 16.7448V18.75H2.58984V16.7448C4.36355 15.9022 5.58984 14.0943 5.58984 12Z" fill="#9F8332"/>
</svg>
