<svg width="535" height="515" viewBox="0 0 535 515" fill="none" xmlns="http://www.w3.org/2000/svg">
<circle cx="31.382" cy="168.107" r="3.95193" transform="rotate(-8.81526 31.382 168.107)" fill="#DCE2EE"/>
<circle cx="38.6495" cy="214.969" r="3.95193" transform="rotate(-8.81526 38.6495 214.969)" fill="#DCE2EE"/>
<circle cx="45.9191" cy="261.832" r="3.95193" transform="rotate(-8.81526 45.9191 261.832)" fill="#DCE2EE"/>
<circle cx="53.1867" cy="308.695" r="3.95193" transform="rotate(-8.81526 53.1867 308.695)" fill="#DCE2EE"/>
<circle cx="60.4523" cy="355.558" r="3.95193" transform="rotate(-8.81526 60.4523 355.558)" fill="#DCE2EE"/>
<circle cx="67.7199" cy="402.421" r="3.95193" transform="rotate(-8.81526 67.7199 402.421)" fill="#DCE2EE"/>
<circle cx="74.9894" cy="449.284" r="3.95193" transform="rotate(-8.81526 74.9894 449.284)" fill="#DCE2EE"/>
<circle cx="78.2452" cy="160.839" r="3.95193" transform="rotate(-8.81526 78.2452 160.839)" fill="#DCE2EE"/>
<circle cx="85.5128" cy="207.702" r="3.95193" transform="rotate(-8.81526 85.5128 207.702)" fill="#DCE2EE"/>
<circle cx="92.7804" cy="254.565" r="3.95193" transform="rotate(-8.81526 92.7804 254.565)" fill="#DCE2EE"/>
<circle cx="100.048" cy="301.428" r="3.95193" transform="rotate(-8.81526 100.048 301.428)" fill="#DCE2EE"/>
<circle cx="107.318" cy="348.291" r="3.95193" transform="rotate(-8.81526 107.318 348.291)" fill="#DCE2EE"/>
<circle cx="114.583" cy="395.154" r="3.95193" transform="rotate(-8.81526 114.583 395.154)" fill="#DCE2EE"/>
<circle cx="121.851" cy="442.017" r="3.95193" transform="rotate(-8.81526 121.851 442.017)" fill="#DCE2EE"/>
<circle cx="125.109" cy="153.571" r="3.95193" transform="rotate(-8.81526 125.109 153.571)" fill="#DCE2EE"/>
<circle cx="132.376" cy="200.434" r="3.95193" transform="rotate(-8.81526 132.376 200.434)" fill="#DCE2EE"/>
<circle cx="139.644" cy="247.297" r="3.95193" transform="rotate(-8.81526 139.644 247.297)" fill="#DCE2EE"/>
<circle cx="146.911" cy="294.16" r="3.95193" transform="rotate(-8.81526 146.911 294.16)" fill="#DCE2EE"/>
<circle cx="154.179" cy="341.023" r="3.95193" transform="rotate(-8.81526 154.179 341.023)" fill="#DCE2EE"/>
<circle cx="161.446" cy="387.886" r="3.95193" transform="rotate(-8.81526 161.446 387.886)" fill="#DCE2EE"/>
<circle cx="168.714" cy="434.749" r="3.95193" transform="rotate(-8.81526 168.714 434.749)" fill="#DCE2EE"/>
<circle cx="171.972" cy="146.304" r="3.95193" transform="rotate(-8.81526 171.972 146.304)" fill="#DCE2EE"/>
<circle cx="179.239" cy="193.167" r="3.95193" transform="rotate(-8.81526 179.239 193.167)" fill="#DCE2EE"/>
<circle cx="186.507" cy="240.03" r="3.95193" transform="rotate(-8.81526 186.507 240.03)" fill="#DCE2EE"/>
<circle cx="193.775" cy="286.893" r="3.95193" transform="rotate(-8.81526 193.775 286.893)" fill="#DCE2EE"/>
<circle cx="201.042" cy="333.756" r="3.95193" transform="rotate(-8.81526 201.042 333.756)" fill="#DCE2EE"/>
<circle cx="208.31" cy="380.619" r="3.95193" transform="rotate(-8.81526 208.31 380.619)" fill="#DCE2EE"/>
<circle cx="215.577" cy="427.482" r="3.95193" transform="rotate(-8.81526 215.577 427.482)" fill="#DCE2EE"/>
<circle cx="218.835" cy="139.036" r="3.95193" transform="rotate(-8.81526 218.835 139.036)" fill="#DCE2EE"/>
<circle cx="226.103" cy="185.899" r="3.95193" transform="rotate(-8.81526 226.103 185.899)" fill="#DCE2EE"/>
<circle cx="233.37" cy="232.762" r="3.95193" transform="rotate(-8.81526 233.37 232.762)" fill="#DCE2EE"/>
<circle cx="240.638" cy="279.625" r="3.95193" transform="rotate(-8.81526 240.638 279.625)" fill="#DCE2EE"/>
<circle cx="247.905" cy="326.488" r="3.95193" transform="rotate(-8.81526 247.905 326.488)" fill="#DCE2EE"/>
<circle cx="255.171" cy="373.351" r="3.95193" transform="rotate(-8.81526 255.171 373.351)" fill="#DCE2EE"/>
<circle cx="262.439" cy="420.214" r="3.95193" transform="rotate(-8.81526 262.439 420.214)" fill="#DCE2EE"/>
<circle cx="265.696" cy="131.769" r="3.95193" transform="rotate(-8.81526 265.696 131.769)" fill="#DCE2EE"/>
<circle cx="272.966" cy="178.632" r="3.95193" transform="rotate(-8.81526 272.966 178.632)" fill="#DCE2EE"/>
<circle cx="280.232" cy="225.495" r="3.95193" transform="rotate(-8.81526 280.232 225.495)" fill="#DCE2EE"/>
<circle cx="287.499" cy="272.358" r="3.95193" transform="rotate(-8.81526 287.499 272.358)" fill="#DCE2EE"/>
<circle cx="294.769" cy="319.221" r="3.95193" transform="rotate(-8.81526 294.769 319.221)" fill="#DCE2EE"/>
<circle cx="302.036" cy="366.083" r="3.95193" transform="rotate(-8.81526 302.036 366.083)" fill="#DCE2EE"/>
<circle cx="309.304" cy="412.946" r="3.95193" transform="rotate(-8.81526 309.304 412.946)" fill="#DCE2EE"/>
<circle cx="312.562" cy="124.501" r="3.95193" transform="rotate(-8.81526 312.562 124.501)" fill="#DCE2EE"/>
<circle cx="319.829" cy="171.364" r="3.95193" transform="rotate(-8.81526 319.829 171.364)" fill="#DCE2EE"/>
<circle cx="327.097" cy="218.227" r="3.95193" transform="rotate(-8.81526 327.097 218.227)" fill="#DCE2EE"/>
<circle cx="334.362" cy="265.09" r="3.95193" transform="rotate(-8.81526 334.362 265.09)" fill="#DCE2EE"/>
<circle cx="341.63" cy="311.953" r="3.95193" transform="rotate(-8.81526 341.63 311.953)" fill="#DCE2EE"/>
<circle cx="348.9" cy="358.816" r="3.95193" transform="rotate(-8.81526 348.9 358.816)" fill="#DCE2EE"/>
<circle cx="356.165" cy="405.679" r="3.95193" transform="rotate(-8.81526 356.165 405.679)" fill="#DCE2EE"/>
<circle cx="359.425" cy="117.234" r="3.95193" transform="rotate(-8.81526 359.425 117.234)" fill="#DCE2EE"/>
<circle cx="366.689" cy="164.097" r="3.95193" transform="rotate(-8.81526 366.689 164.097)" fill="#DCE2EE"/>
<circle cx="373.96" cy="210.96" r="3.95193" transform="rotate(-8.81526 373.96 210.96)" fill="#DCE2EE"/>
<circle cx="381.228" cy="257.823" r="3.95193" transform="rotate(-8.81526 381.228 257.823)" fill="#DCE2EE"/>
<circle cx="388.495" cy="304.685" r="3.95193" transform="rotate(-8.81526 388.495 304.685)" fill="#DCE2EE"/>
<circle cx="395.761" cy="351.548" r="3.95193" transform="rotate(-8.81526 395.761 351.548)" fill="#DCE2EE"/>
<circle cx="403.028" cy="398.411" r="3.95193" transform="rotate(-8.81526 403.028 398.411)" fill="#DCE2EE"/>
<circle cx="406.288" cy="109.966" r="3.95193" transform="rotate(-8.81526 406.288 109.966)" fill="#DCE2EE"/>
<circle cx="413.554" cy="156.829" r="3.95193" transform="rotate(-8.81526 413.554 156.829)" fill="#DCE2EE"/>
<circle cx="420.821" cy="203.692" r="3.95193" transform="rotate(-8.81526 420.821 203.692)" fill="#DCE2EE"/>
<circle cx="428.089" cy="250.555" r="3.95193" transform="rotate(-8.81526 428.089 250.555)" fill="#DCE2EE"/>
<circle cx="435.357" cy="297.418" r="3.95193" transform="rotate(-8.81526 435.357 297.418)" fill="#DCE2EE"/>
<circle cx="442.622" cy="344.281" r="3.95193" transform="rotate(-8.81526 442.622 344.281)" fill="#DCE2EE"/>
<circle cx="449.892" cy="391.144" r="3.95193" transform="rotate(-8.81526 449.892 391.144)" fill="#DCE2EE"/>
<circle cx="453.15" cy="102.699" r="3.95193" transform="rotate(-8.81526 453.15 102.699)" fill="#DCE2EE"/>
<circle cx="460.417" cy="149.562" r="3.95193" transform="rotate(-8.81526 460.417 149.562)" fill="#DCE2EE"/>
<circle cx="467.685" cy="196.424" r="3.95193" transform="rotate(-8.81526 467.685 196.424)" fill="#DCE2EE"/>
<circle cx="474.952" cy="243.287" r="3.95193" transform="rotate(-8.81526 474.952 243.287)" fill="#DCE2EE"/>
<circle cx="482.22" cy="290.15" r="3.95193" transform="rotate(-8.81526 482.22 290.15)" fill="#DCE2EE"/>
<circle cx="489.487" cy="337.013" r="3.95193" transform="rotate(-8.81526 489.487 337.013)" fill="#DCE2EE"/>
<circle cx="496.755" cy="383.876" r="3.95193" transform="rotate(-8.81526 496.755 383.876)" fill="#DCE2EE"/>
<circle cx="268.73" cy="171.693" r="93.2655" fill="#FF6A6A"/>
<circle cx="467.908" cy="457.023" r="7.90385" fill="#7EDBE4"/>
<circle cx="9.48462" cy="377.984" r="9.48462" fill="#FFAC32"/>
<circle cx="388.078" cy="49.1838" r="7.90385" fill="#74B959"/>
<g filter="url(#filter0_d_8881_24473)">
<rect x="54.5371" y="120.701" width="67.8649" height="67.8649" rx="14.976" transform="rotate(-12.1401 54.5371 120.701)" fill="white"/>
</g>
<g filter="url(#filter1_d_8881_24473)">
<rect x="65.5684" y="127.827" width="49.2913" height="49.2913" rx="14.976" transform="rotate(-12.1401 65.5684 127.827)" fill="white"/>
</g>
<rect x="77.457" y="136.888" width="13.573" height="6.78648" rx="2.9952" transform="rotate(-12.1401 77.457 136.888)" fill="#7EDBE4"/>
<rect width="13.573" height="6.78648" rx="2.9952" transform="matrix(0.977636 -0.210303 -0.210303 -0.977636 98.5527 159.655)" fill="#7EDBE4"/>
<rect x="79.2637" y="145.292" width="13.573" height="18.0973" rx="2.9952" transform="rotate(-12.1401 79.2637 145.292)" fill="#7EDBE4"/>
<rect width="13.573" height="18.0973" rx="2.9952" transform="matrix(0.977636 -0.210303 -0.210303 -0.977636 96.7441 151.25)" fill="#FFAC32"/>
<g filter="url(#filter2_d_8881_24473)">
<rect x="437.367" y="160.628" width="67.2684" height="67.2684" rx="14.976" transform="rotate(9.91602 437.367 160.628)" fill="white"/>
</g>
<g filter="url(#filter3_d_8881_24473)">
<rect x="444.85" y="171.281" width="48.8581" height="48.8581" rx="14.976" transform="rotate(9.91602 444.85 171.281)" fill="white"/>
</g>
<g clip-path="url(#clip0_8881_24473)">
<path d="M461.062 199.731C460.785 201.32 461.84 202.832 463.419 203.108C464.999 203.384 466.504 202.32 466.782 200.731C467.06 199.142 466.005 197.63 464.425 197.354C462.846 197.078 461.34 198.142 461.062 199.731ZM471.072 201.481C470.794 203.07 471.849 204.582 473.429 204.858C475.008 205.134 476.513 204.07 476.791 202.481C477.069 200.891 476.014 199.38 474.435 199.103C472.855 198.827 471.35 199.891 471.072 201.481ZM453.41 201.358C454.99 201.634 456.495 200.57 456.773 198.981C457.051 197.392 455.996 195.88 454.416 195.604C452.837 195.328 451.331 196.392 451.053 197.981C450.775 199.57 451.831 201.082 453.41 201.358ZM474.607 206.546L471.747 206.047C470.168 205.77 468.662 206.835 468.384 208.424L468.133 209.862C467.994 210.657 468.522 211.413 469.311 211.551L475.031 212.551C475.82 212.689 476.573 212.157 476.712 211.362L476.964 209.924C477.242 208.334 476.186 206.823 474.607 206.546ZM464.598 204.797L461.738 204.297C460.159 204.021 458.653 205.085 458.375 206.674L458.124 208.113C457.985 208.907 458.512 209.663 459.302 209.801L465.022 210.801C465.811 210.939 466.564 210.407 466.703 209.612L466.954 208.174C467.232 206.585 466.177 205.073 464.598 204.797ZM454.588 203.047L451.729 202.547C450.149 202.271 448.644 203.335 448.366 204.924L448.114 206.363C447.975 207.157 448.503 207.913 449.293 208.051L455.012 209.051C455.802 209.189 456.555 208.657 456.694 207.863L456.945 206.424C457.223 204.835 456.168 203.323 454.588 203.047ZM455.673 188.411L475.692 191.91L474.686 197.665C475.789 197.858 476.71 198.464 477.35 199.287L478.665 191.762C478.88 190.533 478.093 189.365 476.91 189.158L455.461 185.409C454.279 185.202 453.142 186.034 452.927 187.263L451.611 194.788C452.493 194.231 453.565 193.973 454.667 194.165L455.673 188.411Z" fill="#7EDBE4"/>
</g>
<defs>
<filter id="filter0_d_8881_24473" x="24.4004" y="86.7763" width="140.893" height="140.891" filterUnits="userSpaceOnUse" color-interpolation-filters="sRGB">
<feFlood flood-opacity="0" result="BackgroundImageFix"/>
<feColorMatrix in="SourceAlpha" type="matrix" values="0 0 0 0 0 0 0 0 0 0 0 0 0 0 0 0 0 0 127 0" result="hardAlpha"/>
<feOffset dy="10.4832"/>
<feGaussianBlur stdDeviation="16.4736"/>
<feColorMatrix type="matrix" values="0 0 0 0 0.337255 0 0 0 0 0.356863 0 0 0 0 0.866667 0 0 0 0.1 0"/>
<feBlend mode="normal" in2="BackgroundImageFix" result="effect1_dropShadow_8881_24473"/>
<feBlend mode="normal" in="SourceGraphic" in2="effect1_dropShadow_8881_24473" result="shape"/>
</filter>
<filter id="filter1_d_8881_24473" x="35.4317" y="99.3061" width="118.828" height="118.827" filterUnits="userSpaceOnUse" color-interpolation-filters="sRGB">
<feFlood flood-opacity="0" result="BackgroundImageFix"/>
<feColorMatrix in="SourceAlpha" type="matrix" values="0 0 0 0 0 0 0 0 0 0 0 0 0 0 0 0 0 0 127 0" result="hardAlpha"/>
<feOffset dy="11.9808"/>
<feGaussianBlur stdDeviation="16.4736"/>
<feColorMatrix type="matrix" values="0 0 0 0 0.0509804 0 0 0 0 0.0588235 0 0 0 0 0.109804 0 0 0 0.1 0"/>
<feBlend mode="normal" in2="BackgroundImageFix" result="effect1_dropShadow_8881_24473"/>
<feBlend mode="normal" in="SourceGraphic" in2="effect1_dropShadow_8881_24473" result="shape"/>
</filter>
<filter id="filter2_d_8881_24473" x="395.189" y="140.517" width="139.035" height="139.036" filterUnits="userSpaceOnUse" color-interpolation-filters="sRGB">
<feFlood flood-opacity="0" result="BackgroundImageFix"/>
<feColorMatrix in="SourceAlpha" type="matrix" values="0 0 0 0 0 0 0 0 0 0 0 0 0 0 0 0 0 0 127 0" result="hardAlpha"/>
<feOffset dy="10.4832"/>
<feGaussianBlur stdDeviation="16.4736"/>
<feColorMatrix type="matrix" values="0 0 0 0 0.337255 0 0 0 0 0.356863 0 0 0 0 0.866667 0 0 0 0.1 0"/>
<feBlend mode="normal" in2="BackgroundImageFix" result="effect1_dropShadow_8881_24473"/>
<feBlend mode="normal" in="SourceGraphic" in2="effect1_dropShadow_8881_24473" result="shape"/>
</filter>
<filter id="filter3_d_8881_24473" x="405.842" y="152.667" width="117.73" height="117.731" filterUnits="userSpaceOnUse" color-interpolation-filters="sRGB">
<feFlood flood-opacity="0" result="BackgroundImageFix"/>
<feColorMatrix in="SourceAlpha" type="matrix" values="0 0 0 0 0 0 0 0 0 0 0 0 0 0 0 0 0 0 127 0" result="hardAlpha"/>
<feOffset dy="11.9808"/>
<feGaussianBlur stdDeviation="16.4736"/>
<feColorMatrix type="matrix" values="0 0 0 0 0.0509804 0 0 0 0 0.0588235 0 0 0 0 0.109804 0 0 0 0.1 0"/>
<feBlend mode="normal" in2="BackgroundImageFix" result="effect1_dropShadow_8881_24473"/>
<feBlend mode="normal" in="SourceGraphic" in2="effect1_dropShadow_8881_24473" result="shape"/>
</filter>
<clipPath id="clip0_8881_24473">
<rect width="29.0316" height="23.3669" fill="white" transform="translate(451.887 184.784) rotate(9.91602)"/>
</clipPath>
</defs>
</svg>
