<svg width="31" height="31" viewBox="0 0 31 31" fill="none" xmlns="http://www.w3.org/2000/svg">
<g clip-path="url(#clip0_7001_1761)">
<path d="M30.5996 15.5C30.5996 7.21573 23.8839 0.5 15.5996 0.5C7.31534 0.5 0.599609 7.21573 0.599609 15.5C0.599609 23.7843 7.31534 30.5 15.5996 30.5C23.8839 30.5 30.5996 23.7843 30.5996 15.5Z" fill="white" fill-opacity="0.12"/>
<mask id="mask0_7001_1761" style="mask-type:luminance" maskUnits="userSpaceOnUse" x="9" y="8" width="14" height="15">
<path d="M22.1621 8.9375H9.03711V22.0625H22.1621V8.9375Z" fill="white"/>
</mask>
<g mask="url(#mask0_7001_1761)">
<path d="M16.8483 14.4922L21.7343 8.9375H20.5765L16.3339 13.7605L12.9454 8.9375H9.03711L14.1613 16.2308L9.03711 22.0557H10.195L14.6753 16.9624L18.2539 22.0557H22.1621L16.8483 14.4922ZM15.2623 16.2951L14.7432 15.5689L10.6123 9.78995H12.3907L15.7244 14.4537L16.2436 15.18L20.5771 21.2421H18.7986L15.2623 16.2951Z" fill="white"/>
</g>
</g>
<defs>
<clipPath id="clip0_7001_1761">
<rect width="30" height="30" fill="white" transform="translate(0.599609 0.5)"/>
</clipPath>
</defs>
</svg>
