<svg width="37" height="27" viewBox="0 0 37 27" fill="none" xmlns="http://www.w3.org/2000/svg">
<path d="M5.54997 11.9499C7.59074 11.9499 9.24995 10.2907 9.24995 8.24994C9.24995 6.20917 7.59074 4.54996 5.54997 4.54996C3.5092 4.54996 1.84999 6.20917 1.84999 8.24994C1.84999 10.2907 3.5092 11.9499 5.54997 11.9499ZM31.4498 11.9499C33.4906 11.9499 35.1498 10.2907 35.1498 8.24994C35.1498 6.20917 33.4906 4.54996 31.4498 4.54996C29.4091 4.54996 27.7499 6.20917 27.7499 8.24994C27.7499 10.2907 29.4091 11.9499 31.4498 11.9499ZM33.2998 13.7999H29.5998C28.5824 13.7999 27.6631 14.2104 26.9925 14.8752C29.3224 16.1529 30.9758 18.4596 31.3342 21.1999H35.1498C36.1731 21.1999 36.9998 20.3732 36.9998 19.3499V17.4999C36.9998 15.4591 35.3406 13.7999 33.2998 13.7999ZM18.4999 13.7999C22.0785 13.7999 24.9749 10.9035 24.9749 7.32494C24.9749 3.74637 22.0785 0.849976 18.4999 0.849976C14.9213 0.849976 12.0249 3.74637 12.0249 7.32494C12.0249 10.9035 14.9213 13.7999 18.4999 13.7999ZM22.9399 15.6499H22.46C21.2575 16.228 19.9221 16.5749 18.4999 16.5749C17.0777 16.5749 15.748 16.228 14.5398 15.6499H14.0599C10.3831 15.6499 7.39996 18.633 7.39996 22.3099V23.9749C7.39996 25.5069 8.64293 26.7498 10.1749 26.7498H26.8249C28.3569 26.7498 29.5998 25.5069 29.5998 23.9749V22.3099C29.5998 18.633 26.6167 15.6499 22.9399 15.6499ZM10.0073 14.8752C9.33667 14.2104 8.41746 13.7999 7.39996 13.7999H3.69998C1.65921 13.7999 0 15.4591 0 17.4999V19.3499C0 20.3732 0.826715 21.1999 1.84999 21.1999H5.65982C6.02403 18.4596 7.67746 16.1529 10.0073 14.8752Z" fill="#7EDBE4"/>
</svg>
